<svg width="200" height="53" viewBox="0 0 200 53" fill="none" xmlns="http://www.w3.org/2000/svg">
  <path
    d="M16.9027 25.4834C16.9027 29.6023 13.6067 33.0843 9.67684 33.0843H2.15518V32.8719C1.14103 32.787 0.295898 31.9378 0.295898 30.9186V9.98443C0.295898 8.8804 1.18328 8.03114 2.2397 8.03114V7.90375H7.52176C11.5784 7.90375 14.7476 11.0035 14.7476 14.9951C14.7476 16.6086 14.1983 18.1373 13.2686 19.3687C15.4237 20.6426 16.9027 22.9356 16.9027 25.4834ZM7.52176 11.8103H4.1835V18.3072H7.94432C9.55007 18.0948 10.86 16.6936 10.86 14.9951C10.86 13.1691 9.46556 11.8103 7.52176 11.8103ZM12.9728 25.4834C12.9728 23.7424 11.2826 22.2137 9.38104 22.2137H8.15561H7.52176H4.1835V29.1777H9.63458C11.4094 29.1777 12.9728 27.3942 12.9728 25.4834Z"
    fill="#534741"/>
  <path
    d="M35.58 18.3078V31.0467C35.58 32.0658 34.7349 32.9575 33.6784 32.9575C32.5798 32.9575 31.9459 32.1082 31.9459 31.0467V30.6645C30.5092 31.8959 28.8612 32.6178 26.8752 32.6178C22.4382 32.6178 18.8887 29.0509 18.8887 24.5923C18.8887 20.1762 22.4382 16.5668 26.8752 16.5668C28.8612 16.5668 30.5092 17.3312 31.9459 18.4777V18.3078C31.9459 17.2887 32.622 16.397 33.6784 16.397C34.7771 16.397 35.58 17.2887 35.58 18.3078ZM31.0163 24.5923C31.0163 22.2993 29.1147 20.4309 26.8752 20.4309C24.5933 20.4309 22.6918 22.2993 22.6918 24.5923C22.6918 26.8853 24.5933 28.7112 26.8752 28.7112C29.1147 28.7112 31.0163 26.8853 31.0163 24.5923Z"
    fill="#534741"/>
  <path
    d="M55.5675 24.5923C55.5675 29.2632 51.8066 32.9999 47.2007 32.9999C45.4682 32.9999 43.7779 32.4479 42.4679 31.5562C42.2144 32.363 41.4538 32.9575 40.5664 32.9575C39.4255 32.9575 38.5381 32.0658 38.5381 30.9617V9.8152C38.5381 8.71116 39.4255 7.77698 40.5664 7.77698C41.6651 7.77698 42.5525 8.71116 42.5525 9.8152V17.5859C43.9047 16.7367 45.5104 16.1846 47.2007 16.1846C51.8066 16.1846 55.5675 19.9214 55.5675 24.5923ZM51.5531 24.5923C51.5531 22.1719 49.567 20.2186 47.2007 20.2186C44.792 20.2186 42.8483 22.1719 42.8483 24.5923C42.8483 27.0127 44.792 28.966 47.2007 28.966C49.567 28.966 51.5531 27.0127 51.5531 24.5923Z"
    fill="#534741"/>
  <path
    d="M72.5968 18.4776V32.9999C72.5968 37.6284 68.9205 41.4076 64.4836 41.4076C62.1172 41.4076 59.8776 40.346 58.3141 38.4777C57.638 37.6284 57.7225 36.397 58.5254 35.6751C59.3283 34.9532 60.5537 35.0382 61.2298 35.8874C62.075 36.8641 63.2581 37.4161 64.4836 37.4161C66.8499 37.4161 68.7515 35.4203 68.7515 32.9999V31.6411C67.6528 32.2781 66.3851 32.6602 64.9907 32.6602C60.8073 32.6602 57.4268 29.0084 57.4268 24.5074V18.5626C57.4268 17.501 58.2719 16.5668 59.3283 16.5668C60.3847 16.5668 61.2298 17.501 61.2298 18.5626V24.5074C61.2298 26.8004 62.9201 28.7112 64.9484 28.7112C67.019 28.7112 68.7092 26.8004 68.7092 24.5074V18.4776C68.7092 17.3736 69.5966 16.4819 70.6108 16.4819C71.7094 16.4819 72.5968 17.3736 72.5968 18.4776Z"
    fill="#534741"/>
  <path
    d="M136.615 32.7874C136.32 32.9573 136.024 32.9997 135.686 32.9997C135.01 32.9997 134.291 32.6176 133.953 31.9381L129.094 22.6812H124.91V31.004C124.91 32.108 124.065 32.9573 122.967 32.9573C121.868 32.9573 121.023 32.108 121.023 31.004V9.98482C121.023 8.96571 121.868 8.07399 122.882 8.03153V7.81921H130.404C134.333 7.81921 137.63 11.3012 137.63 15.4625C137.63 18.35 135.77 20.8978 133.15 22.0443L137.418 30.1547C137.925 31.0889 137.587 32.2779 136.615 32.7874ZM124.91 18.7746H130.15C132.052 18.7746 133.742 17.2035 133.742 15.4625C133.742 13.5092 132.136 11.7683 130.404 11.7683H124.91V18.7746Z"
    fill="#534741"/>
  <path
    d="M148.447 32.9575C143.884 32.9575 140.165 29.2208 140.165 24.6348C140.165 20.0488 143.884 16.312 148.447 16.312C153.011 16.312 156.73 20.0488 156.772 24.6772C156.73 29.2208 153.011 32.9575 148.447 32.9575ZM148.447 20.346C146.081 20.346 144.222 22.2568 144.222 24.5923C144.222 26.9702 146.123 28.8386 148.447 28.8386C150.771 28.8386 152.673 26.9278 152.673 24.5923C152.673 22.2568 150.814 20.346 148.447 20.346Z"
    fill="#534741"/>
  <path
    d="M167.04 32.9575C162.476 32.9575 158.758 29.2208 158.758 24.6348C158.758 20.0488 162.476 16.312 167.04 16.312C171.604 16.312 175.322 20.0488 175.365 24.6772C175.365 29.2208 171.604 32.9575 167.04 32.9575ZM167.04 20.346C164.674 20.346 162.814 22.2568 162.814 24.5923C162.814 26.9702 164.716 28.8386 167.04 28.8386C169.364 28.8386 171.266 26.9278 171.266 24.5923C171.308 22.2568 169.406 20.346 167.04 20.346Z"
    fill="#534741"/>
  <path
    d="M199.831 22.8513C199.831 22.9363 199.831 22.9363 199.831 22.9787V31.0042C199.831 32.1507 198.986 33 197.887 33C196.789 33 195.859 32.1507 195.859 31.0042V22.9787V22.8513C195.859 22.8089 195.859 22.7664 195.859 22.7664C195.859 21.4501 194.718 20.4734 193.366 20.4734C191.929 20.4734 190.746 21.4501 190.746 22.7664V22.8513C190.746 22.9363 190.746 22.9363 190.746 22.9787V31.0042C190.746 32.1507 189.859 33 188.802 33C187.661 33 186.816 32.1507 186.816 31.0042V22.9787V22.8513C186.816 22.8089 186.816 22.7664 186.816 22.7664C186.816 21.4501 185.675 20.4734 184.238 20.4734C182.802 20.4734 181.661 21.4501 181.661 22.7664V31.1316C181.661 32.1932 180.816 33.0849 179.675 33.0849C178.618 33.0849 177.689 32.1932 177.689 31.1316V18.4352C177.689 17.3312 178.618 16.397 179.675 16.397C180.309 16.397 180.9 16.7367 181.196 17.2038C182.126 16.7367 183.14 16.4819 184.238 16.4819C185.971 16.4819 187.577 17.1613 188.802 18.2653C189.943 17.1188 191.549 16.4819 193.366 16.4819C196.915 16.4819 199.831 19.2845 199.831 22.7664V22.8513Z"
    fill="#534741"/>
  <path
    d="M5.32432 50.9618C5.32432 51.0042 5.32432 51.0467 5.28206 51.0467C5.28206 51.0892 5.23981 51.0892 5.15529 51.1316C5.11304 51.1316 5.02853 51.1741 4.94401 51.1741C4.8595 51.1741 4.73273 51.1741 4.60596 51.1741C4.47919 51.1741 4.35242 51.1741 4.26791 51.1741C4.1834 51.1741 4.09888 51.1316 4.05663 51.1316C4.01437 51.1316 3.97211 51.0892 3.92986 51.0467C3.8876 51.0042 3.8876 51.0042 3.8876 50.9618V45.6539H1.43672V50.9618C1.43672 51.0042 1.43672 51.0467 1.39447 51.0467C1.35221 51.0892 1.35221 51.0892 1.26769 51.1316C1.22544 51.1316 1.14093 51.1741 1.05641 51.1741C0.971899 51.1741 0.845132 51.1741 0.718362 51.1741C0.591593 51.1741 0.464822 51.1741 0.380309 51.1741C0.295796 51.1741 0.211283 51.1316 0.169027 51.1316C0.12677 51.1316 0.0845156 51.0892 0.0422591 51.0467C0.0422591 51.0042 0 51.0042 0 50.9618V44.932C0 44.8047 0.0422578 44.6773 0.126771 44.5923C0.211284 44.5074 0.295795 44.5074 0.422565 44.5074H4.77499C4.90176 44.5074 4.98627 44.5499 5.07078 44.5923C5.15529 44.6773 5.15529 44.7622 5.15529 44.932V50.9618H5.32432Z"
    fill="#534741"/>
  <path
    d="M10.8598 48.5414C10.8598 48.7113 10.8175 48.7962 10.7753 48.8811C10.6908 48.966 10.6062 49.0085 10.4795 49.0085H7.7328C7.7328 49.2208 7.77506 49.3907 7.81731 49.5181C7.85957 49.6879 7.94408 49.8153 8.0286 49.9427C8.11311 50.0701 8.23988 50.155 8.40891 50.1975C8.57793 50.2399 8.74696 50.2824 8.95824 50.2824C9.16952 50.2824 9.38081 50.2824 9.54983 50.2399C9.71886 50.1975 9.84563 50.155 9.9724 50.1125C10.0992 50.0701 10.1837 50.0276 10.2682 49.9851C10.3527 49.9427 10.395 49.9427 10.4795 49.9427C10.5217 49.9427 10.5217 49.9427 10.564 49.9427C10.564 49.9427 10.6062 49.9851 10.6062 50.0276C10.6062 50.0701 10.6485 50.1125 10.6485 50.155C10.6485 50.1975 10.6485 50.2824 10.6485 50.3673C10.6485 50.4522 10.6485 50.4947 10.6485 50.5796C10.6485 50.6221 10.6485 50.6646 10.6485 50.707C10.6485 50.7495 10.6485 50.7919 10.6062 50.7919C10.6062 50.8344 10.564 50.8344 10.564 50.8769C10.564 50.9193 10.4795 50.9193 10.395 50.9618C10.3104 51.0043 10.1837 51.0467 10.0147 51.0892C9.84562 51.1316 9.6766 51.1741 9.50757 51.1741C9.29629 51.2166 9.08501 51.2166 8.87373 51.2166C8.45116 51.2166 8.11311 51.1741 7.81731 51.0467C7.52152 50.9618 7.26798 50.7919 7.0567 50.5796C6.84541 50.3673 6.71865 50.1125 6.59188 49.7728C6.50737 49.4756 6.42285 49.0934 6.42285 48.6688C6.42285 48.2442 6.46511 47.9045 6.59188 47.5648C6.67639 47.2251 6.84541 46.9703 7.0567 46.758C7.26798 46.5456 7.47927 46.3758 7.77506 46.2484C8.07086 46.121 8.36665 46.0786 8.74696 46.0786C9.12726 46.0786 9.46532 46.121 9.71886 46.2484C9.9724 46.3758 10.2259 46.5032 10.395 46.7155C10.564 46.9278 10.6908 47.1401 10.7753 47.4374C10.8598 47.6921 10.902 47.9894 10.902 48.3291V48.5414H10.8598ZM9.63434 48.2017C9.63434 47.8195 9.59209 47.5648 9.42306 47.3524C9.25404 47.1401 9.04275 47.0552 8.7047 47.0552C8.53568 47.0552 8.40891 47.0977 8.28214 47.1401C8.15537 47.1826 8.07086 47.2675 7.98634 47.3949C7.90183 47.4798 7.85957 47.6072 7.81731 47.7771C7.77506 47.9045 7.7328 48.0743 7.7328 48.2442H9.63434V48.2017Z"
    fill="#534741"/>
  <path
    d="M16.48 48.6263C16.48 49.051 16.4377 49.3907 16.3532 49.7304C16.2687 50.0701 16.1419 50.3249 15.9729 50.5796C15.8039 50.7919 15.5926 51.0043 15.339 51.0892C15.0855 51.2166 14.7897 51.259 14.4939 51.259C14.3671 51.259 14.2404 51.259 14.1136 51.2166C13.9868 51.1741 13.9023 51.1316 13.7755 51.0892C13.691 51.0467 13.5643 50.9618 13.4798 50.8769C13.3952 50.7919 13.2685 50.707 13.184 50.6221V52.7877C13.184 52.8302 13.184 52.8726 13.1417 52.8726C13.1417 52.9151 13.0994 52.9151 13.0572 52.9575C13.0149 52.9575 12.9304 53 12.8459 53C12.7614 53 12.6769 53 12.5501 53C12.4233 53 12.3388 53 12.2543 53C12.1698 53 12.1275 52.9575 12.043 52.9575C12.0008 52.9575 11.9585 52.9151 11.9585 52.8726C11.9585 52.8302 11.9163 52.8302 11.9163 52.7877V46.4183C11.9163 46.3758 11.9163 46.3333 11.9585 46.3333C11.9585 46.2909 12.0008 46.2909 12.043 46.2484C12.0853 46.2484 12.1275 46.2059 12.2121 46.2059C12.2966 46.2059 12.3811 46.2059 12.4656 46.2059C12.5501 46.2059 12.6346 46.2059 12.7191 46.2059C12.8037 46.2059 12.8459 46.2484 12.8882 46.2484C12.9304 46.2484 12.9727 46.2909 12.9727 46.3333C12.9727 46.3758 13.0149 46.3758 13.0149 46.4183V46.9703C13.1417 46.8429 13.2685 46.7155 13.3952 46.6306C13.522 46.5457 13.6488 46.4607 13.7755 46.3758C13.9023 46.2909 14.0291 46.2484 14.1981 46.2059C14.3671 46.1635 14.4939 46.1635 14.6629 46.1635C15.001 46.1635 15.2968 46.2484 15.5081 46.3758C15.7616 46.5032 15.9306 46.673 16.0997 46.9278C16.2264 47.1401 16.3532 47.4374 16.4377 47.7346C16.4377 47.9469 16.48 48.2866 16.48 48.6263ZM15.17 48.7113C15.17 48.4989 15.17 48.3291 15.1278 48.1592C15.0855 47.9894 15.0432 47.8195 15.001 47.6921C14.9165 47.5648 14.832 47.4374 14.7475 47.3524C14.6207 47.2675 14.4939 47.2251 14.3249 47.2251C14.2404 47.2251 14.1559 47.2251 14.0713 47.2675C13.9868 47.31 13.9023 47.3524 13.8178 47.3949C13.7333 47.4374 13.6488 47.5223 13.5643 47.6072C13.4798 47.6922 13.3952 47.8195 13.2685 47.9469V49.4331C13.4375 49.6454 13.6065 49.8578 13.7755 49.9427C13.9446 50.0701 14.1136 50.1125 14.2826 50.1125C14.4517 50.1125 14.5784 50.0701 14.7052 49.9851C14.832 49.9002 14.9165 49.7728 15.001 49.6454C15.0855 49.5181 15.1278 49.3482 15.17 49.1784C15.1278 49.051 15.17 48.8811 15.17 48.7113Z"
    fill="#534741"/>
  <path
    d="M21.6775 49.6454C21.6775 49.9002 21.6353 50.155 21.5507 50.3248C21.4662 50.5372 21.2972 50.707 21.1282 50.8344C20.9169 50.9618 20.7056 51.0467 20.4098 51.1316C20.114 51.2166 19.776 51.2166 19.3534 51.2166C19.2266 51.2166 19.0999 51.2166 18.9731 51.2166C18.8463 51.2166 18.7618 51.2166 18.635 51.2166C18.5083 51.2166 18.4238 51.2166 18.297 51.2166C18.1702 51.2166 18.0857 51.2166 17.9589 51.1741C17.7899 51.1741 17.7054 51.1316 17.6209 51.0467C17.5364 50.9618 17.5364 50.8344 17.5364 50.6646V46.7155C17.5364 46.5456 17.5786 46.4607 17.6209 46.3758C17.7054 46.2909 17.7899 46.2484 17.9167 46.2484C18.0012 46.2484 18.0857 46.2484 18.2125 46.2484C18.3393 46.2484 18.4238 46.2484 18.5505 46.2484C18.6773 46.2484 18.8041 46.2484 18.9731 46.2484C19.0999 46.2484 19.2689 46.2484 19.3957 46.2484C19.776 46.2484 20.0718 46.2909 20.3253 46.3333C20.5788 46.3758 20.7901 46.4607 20.9592 46.5457C21.1282 46.6306 21.2549 46.758 21.3395 46.9278C21.424 47.0977 21.4662 47.2675 21.4662 47.4798C21.4662 47.7346 21.3817 47.9894 21.255 48.1592C21.1282 48.3291 20.9169 48.4565 20.6211 48.5414C20.9592 48.5839 21.2127 48.7537 21.424 48.9236C21.593 49.051 21.6775 49.3057 21.6775 49.6454ZM20.283 47.6072C20.283 47.5223 20.2831 47.4374 20.2408 47.3524C20.1985 47.2675 20.1563 47.2251 20.0718 47.1826C19.9873 47.1401 19.9027 47.0977 19.776 47.0552C19.6492 47.0127 19.5224 47.0127 19.3534 47.0127C19.2266 47.0127 19.0999 47.0127 18.9731 47.0127C18.8463 47.0127 18.7618 47.0127 18.6773 47.0552V48.2017H19.3534C19.6492 48.2017 19.8605 48.1592 20.0295 48.0319C20.1985 47.9894 20.283 47.8195 20.283 47.6072ZM20.4098 49.6454C20.4098 49.5181 20.4098 49.4331 20.3676 49.3482C20.3253 49.2633 20.2831 49.1783 20.1985 49.1359C20.114 49.0934 19.9873 49.051 19.8605 49.0085C19.7337 48.966 19.5647 48.966 19.3957 48.966H18.7196V50.2824C18.7618 50.2824 18.8463 50.2824 18.8886 50.2824C18.9308 50.2824 19.0154 50.2824 19.0576 50.2824C19.0999 50.2824 19.1844 50.2824 19.2266 50.2824C19.2689 50.2824 19.3534 50.2824 19.3957 50.2824C19.5647 50.2824 19.7337 50.2824 19.8605 50.2399C19.9873 50.1975 20.114 50.155 20.1563 50.1125C20.2408 50.0701 20.2831 49.9851 20.3253 49.9002C20.3676 49.8153 20.4098 49.7304 20.4098 49.6454Z"
    fill="#534741"/>
  <path
    d="M27.2555 48.6688C27.2555 49.051 27.2132 49.3907 27.0865 49.7304C27.002 50.0701 26.8329 50.3248 26.6216 50.5372C26.4104 50.7495 26.1568 50.9618 25.861 51.0892C25.5652 51.2166 25.1849 51.259 24.7624 51.259C24.3398 51.259 24.0017 51.2166 23.706 51.0892C23.4102 50.9618 23.1566 50.7919 22.9453 50.5796C22.734 50.3673 22.6073 50.1125 22.5228 49.7728C22.4383 49.4756 22.396 49.0934 22.396 48.7113C22.396 48.3291 22.4383 47.9469 22.565 47.6497C22.6495 47.31 22.8186 47.0552 23.0298 46.8004C23.2411 46.5456 23.4947 46.3758 23.7905 46.2484C24.0863 46.121 24.4666 46.0786 24.8891 46.0786C25.3117 46.0786 25.6497 46.121 25.9455 46.2484C26.2413 46.3758 26.4949 46.5032 26.7062 46.7155C26.9174 46.9278 27.0442 47.1826 27.1287 47.5223C27.2132 47.862 27.2555 48.2442 27.2555 48.6688ZM25.9455 48.7113C25.9455 48.4989 25.9455 48.2866 25.9033 48.0743C25.861 47.9045 25.8188 47.7346 25.7343 47.5648C25.6497 47.4374 25.523 47.31 25.3962 47.225C25.2694 47.1401 25.0582 47.0977 24.8469 47.0977C24.6778 47.0977 24.5088 47.1401 24.3398 47.1826C24.213 47.2675 24.0863 47.3524 24.0017 47.4798C23.9172 47.6072 23.8327 47.7771 23.7905 47.9469C23.7482 48.1168 23.706 48.3716 23.706 48.5839C23.706 48.7962 23.7059 49.0085 23.7482 49.2208C23.7905 49.3907 23.8327 49.5605 23.9172 49.7304C24.0017 49.8578 24.1285 49.9851 24.2553 50.0701C24.3821 50.155 24.5933 50.1975 24.8046 50.1975C25.0159 50.1975 25.1849 50.155 25.3117 50.1125C25.4385 50.0276 25.5652 49.9427 25.6497 49.8153C25.7343 49.6879 25.8188 49.518 25.861 49.3482C25.9033 49.1359 25.9455 48.9236 25.9455 48.7113Z"
    fill="#534741"/>
  <path
    d="M32.5375 51.0043C32.5375 51.0467 32.5375 51.0467 32.4952 51.0892C32.4952 51.0892 32.4529 51.1316 32.4107 51.1316C32.3684 51.1316 32.2839 51.1741 32.1994 51.1741C32.1149 51.1741 32.0304 51.1741 31.9036 51.1741C31.7768 51.1741 31.6501 51.1741 31.5656 51.1741C31.481 51.1741 31.3965 51.1741 31.3543 51.1316C31.312 51.1316 31.2698 51.0892 31.2275 51.0892C31.1853 51.0892 31.1852 51.0467 31.1852 51.0043L30.7627 49.9002C30.7204 49.7728 30.6359 49.6454 30.5937 49.5181C30.5514 49.4331 30.4669 49.3482 30.3824 49.2633C30.2979 49.2208 30.2134 49.1783 30.1288 49.1359C30.0443 49.0934 29.9176 49.0934 29.833 49.0934H29.5795V50.9618C29.5795 51.0043 29.5795 51.0043 29.5372 51.0467C29.495 51.0892 29.495 51.0892 29.4105 51.0892C29.3682 51.0892 29.2837 51.1316 29.1992 51.1316C29.1147 51.1316 29.0302 51.1316 28.9034 51.1316C28.7766 51.1316 28.6921 51.1316 28.6076 51.1316C28.5231 51.1316 28.4808 51.0892 28.3963 51.0892C28.3541 51.0892 28.3118 51.0467 28.2696 51.0467C28.2273 51.0043 28.2273 51.0043 28.2273 50.9618V46.3333C28.2273 46.2909 28.2273 46.2909 28.2696 46.2484C28.3118 46.206 28.3118 46.2059 28.3963 46.2059C28.4386 46.2059 28.5231 46.1635 28.6076 46.1635C28.6921 46.1635 28.7766 46.1635 28.9034 46.1635C29.0302 46.1635 29.1147 46.1635 29.1992 46.1635C29.2837 46.1635 29.326 46.1635 29.4105 46.2059C29.4527 46.2059 29.495 46.2484 29.5372 46.2484C29.5795 46.2484 29.5795 46.2909 29.5795 46.3333V48.1168H29.833C29.9176 48.1168 30.0443 48.1168 30.1288 48.0743C30.2134 48.0319 30.2979 47.9894 30.3401 47.9469C30.4246 47.9045 30.4669 47.8195 30.5514 47.6921C30.5937 47.6072 30.6782 47.4798 30.7204 47.31L31.1007 46.3333C31.1007 46.2909 31.143 46.2484 31.143 46.2484C31.1852 46.206 31.1852 46.2059 31.2698 46.2059C31.312 46.2059 31.3965 46.1635 31.481 46.1635C31.5656 46.1635 31.6923 46.1635 31.8191 46.1635C31.9459 46.1635 32.0304 46.1635 32.1149 46.1635C32.1994 46.1635 32.2417 46.1635 32.2839 46.2059C32.3262 46.2059 32.3684 46.2484 32.3684 46.2484C32.3684 46.2484 32.4107 46.2909 32.4107 46.3333C32.4107 46.3758 32.4107 46.4183 32.4107 46.4607C32.4107 46.5032 32.3684 46.5881 32.3262 46.673L31.9459 47.5223C31.8614 47.6922 31.8191 47.862 31.7346 47.9469C31.6501 48.0743 31.5656 48.1592 31.481 48.2442C31.3965 48.3291 31.312 48.3716 31.2275 48.414C31.143 48.4565 31.0585 48.4989 30.974 48.5414C31.0585 48.5839 31.1852 48.6263 31.2698 48.6688C31.3543 48.7113 31.4388 48.7962 31.5233 48.8811C31.6078 48.966 31.6923 49.051 31.7768 49.1784C31.8614 49.3057 31.9459 49.4331 31.9881 49.603L32.4107 50.6221C32.4107 50.6646 32.4529 50.707 32.4529 50.7495C32.4529 50.7919 32.4952 50.7919 32.4952 50.8344C32.4952 50.8769 32.4952 50.8769 32.4952 50.9193C32.5375 51.0043 32.5375 51.0043 32.5375 51.0043Z"
    fill="#534741"/>
  <path
    d="M37.6082 50.9618C37.6082 51.0043 37.6082 51.0467 37.566 51.0467C37.566 51.0892 37.5237 51.0892 37.4815 51.1316C37.4392 51.1316 37.3547 51.1741 37.2702 51.1741C37.1857 51.1741 37.1012 51.1741 36.9744 51.1741C36.8476 51.1741 36.7631 51.1741 36.6786 51.1741C36.5941 51.1741 36.5096 51.1316 36.4673 51.1316C36.4251 51.1316 36.3828 51.0892 36.3828 51.0467C36.3828 51.0043 36.3405 51.0043 36.3405 50.9618V47.2675H35.4109C35.3686 47.8195 35.2841 48.2866 35.1996 48.6688C35.1151 49.0934 35.0306 49.4331 34.9038 49.7304C34.8193 50.0276 34.6925 50.2824 34.5658 50.4522C34.439 50.6645 34.3122 50.7919 34.1432 50.9193C33.9742 51.0467 33.8052 51.1316 33.6361 51.1741C33.4671 51.2166 33.2558 51.259 33.0868 51.259C33.0445 51.259 33.0023 51.259 32.96 51.259C32.9178 51.259 32.9178 51.2166 32.8755 51.1741C32.8755 51.1316 32.8333 51.0892 32.8333 51.0043C32.8333 50.9193 32.8333 50.8344 32.8333 50.707C32.8333 50.5796 32.8333 50.4947 32.8333 50.4098C32.8333 50.3248 32.8333 50.2824 32.8755 50.2399C32.8755 50.1975 32.9178 50.155 32.9178 50.155C32.96 50.155 32.96 50.155 33.0023 50.155C33.0868 50.155 33.1713 50.155 33.2558 50.1125C33.3403 50.0701 33.4248 49.9851 33.5094 49.9002C33.5939 49.8153 33.6784 49.6879 33.7206 49.5181C33.8052 49.3482 33.8474 49.1359 33.8897 48.8811C33.9319 48.6263 34.0164 48.3291 34.0587 47.9894C34.101 47.6497 34.1432 47.2251 34.1855 46.758C34.1855 46.6306 34.2277 46.5032 34.27 46.4607C34.3122 46.3758 34.3967 46.3758 34.5235 46.3758H37.1434C37.2702 46.3758 37.3547 46.4183 37.397 46.4607C37.4392 46.5457 37.4815 46.6306 37.4815 46.758V50.9618H37.6082Z"
    fill="#534741"/>
  <path
    d="M42.7634 51.0042C42.7634 51.0467 42.7635 51.0892 42.7212 51.1316C42.6789 51.1741 42.6367 51.1741 42.5522 51.1741C42.4677 51.1741 42.3831 51.1741 42.2141 51.1741C42.0451 51.1741 41.9606 51.1741 41.8761 51.1741C41.7916 51.1741 41.7493 51.1316 41.7493 51.1316C41.707 51.0892 41.707 51.0467 41.707 51.0042V50.6221C41.538 50.8344 41.3267 50.9618 41.0732 51.0892C40.8196 51.2166 40.5661 51.259 40.2703 51.259C40.0168 51.259 39.8055 51.2166 39.5942 51.1741C39.3829 51.1316 39.2139 51.0042 39.0871 50.8769C38.9604 50.7495 38.8336 50.5796 38.7491 50.4098C38.6646 50.2399 38.6223 50.0276 38.6223 49.7728C38.6223 49.518 38.6646 49.2633 38.7913 49.0934C38.8759 48.8811 39.0449 48.7537 39.2562 48.6263C39.4674 48.4989 39.721 48.414 40.0168 48.3291C40.3126 48.2866 40.6929 48.2442 41.0732 48.2442H41.4958V47.9894C41.4958 47.862 41.4958 47.7346 41.4535 47.6072C41.4112 47.4798 41.369 47.3949 41.3267 47.3524C41.2422 47.2675 41.1577 47.225 41.0732 47.1826C40.9464 47.1401 40.8196 47.1401 40.6506 47.1401C40.4393 47.1401 40.2281 47.1826 40.059 47.225C39.89 47.2675 39.7632 47.31 39.5942 47.3949C39.4674 47.4374 39.3407 47.5223 39.2562 47.5647C39.1716 47.6072 39.0871 47.6497 39.0449 47.6497C39.0026 47.6497 38.9604 47.6497 38.9604 47.6072C38.9181 47.5647 38.9181 47.5647 38.8758 47.5223C38.8758 47.4798 38.8336 47.4374 38.8336 47.3524C38.8336 47.2675 38.8336 47.225 38.8336 47.1401C38.8336 47.0552 38.8336 46.9703 38.8758 46.8853C38.8758 46.8429 38.9181 46.7579 38.9604 46.7155C39.0026 46.673 39.0871 46.6306 39.2139 46.5456C39.3407 46.5032 39.4674 46.4182 39.6365 46.3758C39.8055 46.3333 39.9745 46.2909 40.1435 46.2484C40.3126 46.2059 40.5239 46.2059 40.7351 46.2059C41.0732 46.2059 41.4112 46.2484 41.6648 46.2909C41.9183 46.3333 42.1296 46.4607 42.2986 46.6306C42.4677 46.758 42.5944 46.9703 42.6367 47.1826C42.7212 47.3949 42.7634 47.6921 42.7634 47.9894V51.0042ZM41.4958 49.0509H40.9887C40.7774 49.0509 40.6084 49.0509 40.4393 49.0934C40.3126 49.1359 40.1858 49.1783 40.1013 49.2208C40.0168 49.2633 39.9323 49.3482 39.89 49.4331C39.8478 49.518 39.8055 49.603 39.8055 49.7304C39.8055 49.9002 39.8478 50.0701 39.9745 50.1974C40.1013 50.3248 40.2703 50.3673 40.4816 50.3673C40.6506 50.3673 40.8196 50.3248 40.9887 50.2399C41.1577 50.155 41.2845 50.0276 41.4535 49.8153V49.0509H41.4958Z"
    fill="#534741"/>
  <path
    d="M47.4539 50.2399C47.4539 50.3249 47.4539 50.4098 47.4539 50.4522C47.4539 50.4947 47.4539 50.5796 47.4539 50.6221C47.4539 50.6646 47.4539 50.707 47.4117 50.707C47.4117 50.7495 47.3694 50.7495 47.3272 50.7919C47.2849 50.8344 47.2004 50.8769 47.1159 50.9193C47.0314 50.9618 46.9046 51.0467 46.7778 51.0892C46.651 51.1316 46.5243 51.1741 46.3553 51.2166C46.2285 51.259 46.0595 51.259 45.8904 51.259C45.5524 51.259 45.2143 51.2166 44.9608 51.0892C44.7073 50.9618 44.4537 50.8344 44.2847 50.6221C44.1157 50.4098 43.9466 50.155 43.8621 49.8578C43.7776 49.5605 43.7354 49.2208 43.7354 48.7962C43.7354 48.3291 43.7776 47.9469 43.9044 47.6072C44.0312 47.2675 44.1579 47.0127 44.3692 46.8004C44.5805 46.5881 44.834 46.4183 45.0876 46.3333C45.3834 46.2484 45.6792 46.1635 46.0172 46.1635C46.144 46.1635 46.2707 46.1635 46.3975 46.2059C46.5243 46.2484 46.651 46.2484 46.7778 46.2909C46.9046 46.3333 46.9891 46.3758 47.0736 46.4183C47.1581 46.4607 47.2426 46.5032 47.2849 46.5457C47.3272 46.5881 47.3272 46.6306 47.3694 46.6306C47.3694 46.673 47.4117 46.673 47.4117 46.7155C47.4117 46.758 47.4117 46.8004 47.4117 46.8854C47.4117 46.9278 47.4117 47.0127 47.4117 47.0977C47.4117 47.31 47.4117 47.4374 47.3694 47.5223C47.3272 47.6072 47.2849 47.6497 47.2426 47.6497C47.2004 47.6497 47.1159 47.6072 47.0736 47.5648C46.9891 47.5223 46.9468 47.4798 46.8623 47.3949C46.7778 47.3524 46.651 47.2675 46.5665 47.2251C46.4398 47.1826 46.313 47.1401 46.144 47.1401C45.8059 47.1401 45.5524 47.2675 45.3834 47.5223C45.2143 47.7771 45.1298 48.1592 45.1298 48.6688C45.1298 48.9236 45.1721 49.1359 45.2143 49.3057C45.2566 49.4756 45.3411 49.6454 45.4256 49.7728C45.5101 49.9002 45.6369 49.9851 45.7637 50.0701C45.8904 50.1125 46.0595 50.155 46.2285 50.155C46.3975 50.155 46.5665 50.1125 46.6933 50.0701C46.8201 50.0276 46.9468 49.9427 47.0314 49.9002C47.1159 49.8578 47.2004 49.7728 47.2849 49.7304C47.3694 49.6879 47.4117 49.6454 47.4539 49.6454C47.4962 49.6454 47.4962 49.6454 47.5384 49.6879C47.5384 49.6879 47.5807 49.7304 47.5807 49.7728C47.5807 49.8153 47.6229 49.8578 47.6229 49.9427C47.4539 50.0276 47.4539 50.155 47.4539 50.2399Z"
    fill="#534741"/>
  <path
    d="M51.7642 50.2399C51.7642 50.3249 51.7642 50.4098 51.7642 50.4522C51.7642 50.4947 51.7642 50.5796 51.7642 50.6221C51.7642 50.6646 51.7642 50.707 51.722 50.707C51.722 50.7495 51.6797 50.7495 51.6375 50.7919C51.5952 50.8344 51.5107 50.8769 51.4262 50.9193C51.3417 50.9618 51.2149 51.0467 51.0881 51.0892C50.9614 51.1316 50.8346 51.1741 50.6656 51.2166C50.5388 51.259 50.3698 51.259 50.2007 51.259C49.8627 51.259 49.5246 51.2166 49.2711 51.0892C49.0176 50.9618 48.764 50.8344 48.595 50.6221C48.426 50.4098 48.2569 50.155 48.1724 49.8578C48.0879 49.5605 48.0457 49.2208 48.0457 48.7962C48.0457 48.3291 48.0879 47.9469 48.2147 47.6072C48.3415 47.2675 48.4682 47.0127 48.6795 46.8004C48.8908 46.5881 49.1443 46.4183 49.3979 46.3333C49.6937 46.2484 49.9895 46.1635 50.3275 46.1635C50.4543 46.1635 50.581 46.1635 50.7078 46.2059C50.8346 46.2484 50.9614 46.2484 51.0881 46.2909C51.2149 46.3333 51.2994 46.3758 51.3839 46.4183C51.4684 46.4607 51.5529 46.5032 51.5952 46.5457C51.6375 46.5881 51.6375 46.6306 51.6797 46.6306C51.6797 46.673 51.722 46.673 51.722 46.7155C51.722 46.758 51.722 46.8004 51.722 46.8854C51.722 46.9278 51.722 47.0127 51.722 47.0977C51.722 47.31 51.722 47.4374 51.6797 47.5223C51.6375 47.6072 51.5952 47.6497 51.5529 47.6497C51.5107 47.6497 51.4262 47.6072 51.3839 47.5648C51.2994 47.5223 51.2572 47.4798 51.1726 47.3949C51.0881 47.31 50.9614 47.2675 50.8768 47.2251C50.7501 47.1826 50.6233 47.1401 50.4543 47.1401C50.1162 47.1401 49.8627 47.2675 49.6937 47.5223C49.5246 47.7771 49.4401 48.1592 49.4401 48.6688C49.4401 48.9236 49.4824 49.1359 49.5246 49.3057C49.5669 49.4756 49.6514 49.6454 49.7359 49.7728C49.8204 49.9002 49.9472 49.9851 50.074 50.0701C50.2007 50.1125 50.3698 50.155 50.5388 50.155C50.7078 50.155 50.8768 50.1125 51.0036 50.0701C51.1304 50.0276 51.2571 49.9427 51.3417 49.9002C51.4262 49.8153 51.5107 49.7728 51.5952 49.7304C51.6797 49.6879 51.722 49.6454 51.7642 49.6454C51.8065 49.6454 51.8065 49.6454 51.8487 49.6879C51.8487 49.6879 51.891 49.7304 51.891 49.7728C51.891 49.8153 51.9333 49.8578 51.9333 49.9427C51.7642 50.0276 51.7642 50.155 51.7642 50.2399Z"
    fill="#534741"/>
  <path
    d="M57.0885 50.9618C57.0885 51.0042 57.0885 51.0467 57.0462 51.0467C57.0462 51.0892 57.004 51.0892 56.9617 51.1316C56.9195 51.1316 56.835 51.1741 56.7505 51.1741C56.6659 51.1741 56.5814 51.1741 56.4547 51.1741C56.3279 51.1741 56.2434 51.1741 56.1589 51.1741C56.0744 51.1741 55.9898 51.1316 55.9476 51.1316C55.9053 51.1316 55.8631 51.0892 55.8631 51.0467C55.8631 51.0042 55.8208 51.0042 55.8208 50.9618V49.1783H54.0038V50.9618C54.0038 51.0042 54.0038 51.0467 53.9615 51.0467C53.9615 51.0892 53.9193 51.0892 53.877 51.1316C53.8348 51.1316 53.7502 51.1741 53.6657 51.1741C53.5812 51.1741 53.4967 51.1741 53.3699 51.1741C53.2432 51.1741 53.1587 51.1741 53.0741 51.1741C52.9896 51.1741 52.9474 51.1316 52.8629 51.1316C52.8206 51.1316 52.7783 51.0892 52.7783 51.0467C52.7783 51.0042 52.7361 51.0042 52.7361 50.9618V46.4182C52.7361 46.3758 52.7361 46.3333 52.7783 46.3333C52.7783 46.2909 52.8206 46.2909 52.8629 46.2484C52.9051 46.2484 52.9896 46.2059 53.0741 46.2059C53.1587 46.2059 53.2432 46.2059 53.3699 46.2059C53.4967 46.2059 53.5812 46.2059 53.6657 46.2059C53.7502 46.2059 53.7925 46.2484 53.877 46.2484C53.9193 46.2484 53.9615 46.2909 53.9615 46.3333C53.9615 46.3758 54.0038 46.3758 54.0038 46.4182V48.1168H55.8208V46.4182C55.8208 46.3758 55.8208 46.3333 55.8631 46.3333C55.8631 46.2909 55.9053 46.2909 55.9476 46.2484C55.9898 46.2484 56.0744 46.2059 56.1589 46.2059C56.2434 46.2059 56.3279 46.2059 56.4547 46.2059C56.5814 46.2059 56.6659 46.2059 56.7505 46.2059C56.835 46.2059 56.9195 46.2484 56.9617 46.2484C57.004 46.2484 57.0462 46.2909 57.0462 46.3333C57.0462 46.3758 57.0885 46.3758 57.0885 46.4182V50.9618Z"
    fill="#534741"/>
  <path
    d="M59.6664 47.8195C59.7932 47.8195 59.8777 47.8195 60.0044 47.7771C60.1312 47.7771 60.258 47.7771 60.3848 47.7771C60.7651 47.7771 61.0609 47.8195 61.3567 47.9044C61.6102 47.9894 61.8637 48.0743 62.0328 48.2442C62.2018 48.3715 62.3286 48.5414 62.4131 48.7537C62.4976 48.966 62.5398 49.1783 62.5398 49.4331C62.5398 49.6879 62.4976 49.9427 62.4131 50.155C62.3286 50.3673 62.1595 50.5796 61.9905 50.707C61.7792 50.8769 61.5257 51.0042 61.2299 51.0892C60.9341 51.1741 60.5538 51.2166 60.1312 51.2166C60.0044 51.2166 59.9199 51.2166 59.7932 51.2166C59.6664 51.2166 59.5819 51.2166 59.4551 51.2166C59.3283 51.2166 59.2438 51.2166 59.1171 51.2166C59.0326 51.2166 58.9058 51.2166 58.8213 51.1741C58.6522 51.1741 58.5255 51.0892 58.4832 51.0467C58.441 51.0042 58.3564 50.8344 58.3564 50.6645V46.4182C58.3564 46.3758 58.3564 46.3333 58.3987 46.3333C58.3987 46.2909 58.441 46.2909 58.4832 46.2484C58.5255 46.2484 58.61 46.2059 58.6522 46.2059C58.7368 46.2059 58.8213 46.2059 58.948 46.2059C59.2016 46.2059 59.3706 46.2059 59.4551 46.2484C59.5396 46.2909 59.6241 46.3333 59.6241 46.4182V47.8195H59.6664ZM61.2299 49.518C61.2299 49.3907 61.2299 49.3057 61.1876 49.1783C61.1454 49.0934 61.1031 49.0085 61.0186 48.9236C60.9341 48.8386 60.8496 48.7962 60.7228 48.7537C60.596 48.7112 60.427 48.7112 60.258 48.7112C60.1312 48.7112 60.0467 48.7112 59.9199 48.7112C59.8354 48.7112 59.7509 48.7112 59.6664 48.7112V50.1974C59.7509 50.1974 59.8777 50.1974 59.9622 50.2399C60.0467 50.2399 60.1735 50.2399 60.3002 50.2399C60.6383 50.2399 60.8918 50.155 61.0609 50.0276C61.2299 49.9002 61.2299 49.7728 61.2299 49.518ZM64.4836 50.9618C64.4836 51.0042 64.4836 51.0467 64.4414 51.0467C64.4414 51.0892 64.3991 51.0892 64.3569 51.1316C64.3146 51.1316 64.2301 51.1741 64.1456 51.1741C64.0611 51.1741 63.9766 51.1741 63.8498 51.1741C63.723 51.1741 63.6385 51.1741 63.554 51.1741C63.4695 51.1741 63.4272 51.1316 63.3427 51.1316C63.3005 51.1316 63.2582 51.0892 63.2582 51.0467C63.2582 51.0042 63.2159 51.0042 63.2159 50.9618V46.4182C63.2159 46.3758 63.2159 46.3333 63.2582 46.3333C63.2582 46.2909 63.3005 46.2909 63.3427 46.2484C63.385 46.2484 63.4695 46.2059 63.554 46.2059C63.6385 46.2059 63.723 46.2059 63.8498 46.2059C63.9766 46.2059 64.1033 46.2059 64.1456 46.2059C64.2301 46.2059 64.2724 46.2484 64.3569 46.2484C64.3991 46.2484 64.4414 46.2909 64.4414 46.3333C64.4414 46.3758 64.4836 46.3758 64.4836 46.4182V50.9618Z"
    fill="#534741"/>
  <path
    d="M69.977 48.5414C69.977 48.7113 69.9347 48.7962 69.8925 48.8811C69.808 48.966 69.7234 49.0085 69.5967 49.0085H66.85C66.85 49.2208 66.8923 49.3907 66.9345 49.5181C66.9768 49.6879 67.0613 49.8153 67.1458 49.9427C67.2303 50.0701 67.3571 50.155 67.5261 50.1975C67.6951 50.2399 67.8641 50.2824 68.0754 50.2824C68.2867 50.2824 68.498 50.2824 68.667 50.2399C68.8361 50.1975 68.9628 50.155 69.0896 50.1125C69.2164 50.0701 69.3009 50.0276 69.3854 49.9851C69.4699 49.9427 69.5122 49.9427 69.5967 49.9427C69.6389 49.9427 69.6389 49.9427 69.6812 49.9427C69.7234 49.9427 69.7234 49.9851 69.7234 50.0276C69.7234 50.0701 69.7657 50.1125 69.7657 50.155C69.7657 50.1975 69.7657 50.2824 69.7657 50.3673C69.7657 50.4522 69.7657 50.4947 69.7657 50.5796C69.7657 50.6221 69.7657 50.6646 69.7657 50.707C69.7657 50.7495 69.7657 50.7919 69.7234 50.7919C69.7234 50.8344 69.6812 50.8344 69.6812 50.8769C69.6812 50.9193 69.5967 50.9193 69.5122 50.9618C69.4276 51.0043 69.3009 51.0467 69.1318 51.0892C68.9628 51.1316 68.7938 51.1741 68.6248 51.1741C68.4135 51.2166 68.2022 51.2166 67.9909 51.2166C67.5684 51.2166 67.2303 51.1741 66.9345 51.0467C66.6387 50.9618 66.3852 50.7919 66.1739 50.5796C65.9626 50.3673 65.8358 50.1125 65.7091 49.7728C65.6246 49.4756 65.54 49.0934 65.54 48.6688C65.54 48.2442 65.5823 47.9045 65.7091 47.5648C65.7936 47.2251 65.9626 46.9703 66.1739 46.758C66.3852 46.5456 66.5965 46.3758 66.8923 46.2484C67.188 46.121 67.4838 46.0786 67.8641 46.0786C68.2445 46.0786 68.5825 46.121 68.8361 46.2484C69.0896 46.3758 69.3431 46.5032 69.5122 46.7155C69.6812 46.9278 69.808 47.1401 69.8925 47.4374C69.977 47.6921 70.0192 47.9894 70.0192 48.3291V48.5414H69.977ZM68.7093 48.2017C68.7093 47.8195 68.667 47.5648 68.498 47.3524C68.329 47.1401 68.1177 47.0552 67.7796 47.0552C67.6106 47.0552 67.4838 47.0977 67.3571 47.1401C67.2303 47.1826 67.1458 47.2675 67.0613 47.3949C66.9768 47.4798 66.9345 47.6072 66.8923 47.7771C66.85 47.9045 66.8077 48.0743 66.8077 48.2442H68.7093V48.2017Z"
    fill="#534741"/>
  <path
    d="M76.7377 46.8004C76.7377 46.9278 76.7377 47.0127 76.7377 47.0977C76.7377 47.1826 76.6955 47.2251 76.6955 47.2675C76.6955 47.31 76.6532 47.3524 76.611 47.3524C76.5687 47.3524 76.5687 47.3949 76.5265 47.3949H75.3855V50.9618C75.3855 51.0043 75.3855 51.0467 75.3433 51.0467C75.3433 51.0892 75.301 51.0892 75.2588 51.1316C75.2165 51.1316 75.132 51.1741 75.0475 51.1741C74.963 51.1741 74.8785 51.1741 74.7517 51.1741C74.6249 51.1741 74.5404 51.1741 74.4559 51.1741C74.3714 51.1741 74.3291 51.1316 74.2446 51.1316C74.2023 51.1316 74.1601 51.0892 74.1601 51.0467C74.1601 51.0043 74.1178 51.0043 74.1178 50.9618V47.3949H72.9769C72.9347 47.3949 72.8924 47.3949 72.8924 47.3524C72.8501 47.3524 72.8501 47.31 72.8079 47.2675C72.7656 47.2251 72.7656 47.1826 72.7656 47.0977C72.7656 47.0127 72.7656 46.9278 72.7656 46.8004C72.7656 46.7155 72.7656 46.6306 72.7656 46.5457C72.7656 46.4607 72.8079 46.4183 72.8079 46.3758C72.8079 46.3333 72.8501 46.2909 72.8501 46.2909C72.8924 46.2909 72.8924 46.2484 72.9346 46.2484H76.4842C76.5265 46.2484 76.5265 46.2484 76.5687 46.2909C76.611 46.2909 76.611 46.3333 76.6532 46.3758C76.6532 46.4183 76.6955 46.4607 76.6955 46.5457C76.7377 46.6306 76.7377 46.7155 76.7377 46.8004Z"
    fill="#534741"/>
  <path
    d="M81.9352 48.6688C81.9352 49.051 81.8929 49.3907 81.7662 49.7304C81.6816 50.0701 81.5126 50.3248 81.3013 50.5372C81.0901 50.7495 80.8365 50.9618 80.5407 51.0892C80.2449 51.2166 79.8646 51.259 79.442 51.259C79.0195 51.259 78.6814 51.2166 78.3856 51.0892C78.0898 50.9618 77.8363 50.7919 77.625 50.5796C77.4137 50.3673 77.287 50.1125 77.2024 49.7728C77.1179 49.4756 77.0757 49.0934 77.0757 48.7113C77.0757 48.3291 77.1179 47.9469 77.2447 47.6497C77.3292 47.31 77.4982 47.0552 77.7095 46.8004C77.9208 46.5881 78.1743 46.3758 78.4701 46.2484C78.7659 46.121 79.1462 46.0786 79.5688 46.0786C79.9914 46.0786 80.3294 46.121 80.6252 46.2484C80.921 46.3758 81.1746 46.5032 81.3858 46.7155C81.5971 46.9278 81.7239 47.1826 81.8084 47.5223C81.8929 47.862 81.9352 48.2442 81.9352 48.6688ZM80.6252 48.7113C80.6252 48.4989 80.6252 48.2866 80.583 48.0743C80.5407 47.9045 80.4985 47.7346 80.4139 47.5648C80.3294 47.4374 80.2027 47.31 80.0759 47.225C79.9491 47.1401 79.7378 47.0977 79.5266 47.0977C79.3575 47.0977 79.1885 47.1401 79.0195 47.1826C78.8927 47.2675 78.7659 47.3524 78.6814 47.4798C78.5969 47.6072 78.5124 47.7771 78.4701 47.9469C78.4279 48.1168 78.3856 48.3716 78.3856 48.5839C78.3856 48.7962 78.3856 49.0085 78.4279 49.2208C78.4701 49.3907 78.5124 49.5605 78.5969 49.7304C78.6814 49.8578 78.8082 49.9851 78.935 50.0701C79.0617 50.155 79.273 50.1975 79.4843 50.1975C79.6956 50.1975 79.8646 50.155 79.9914 50.1125C80.1181 50.0276 80.2449 49.9427 80.3294 49.8153C80.4139 49.6879 80.4985 49.518 80.5407 49.3482C80.583 49.1359 80.6252 48.9236 80.6252 48.7113Z"
    fill="#534741"/>
  <path
    d="M87.1328 49.6454C87.1328 49.9002 87.0906 50.155 87.0061 50.3248C86.9216 50.5372 86.7525 50.707 86.5835 50.8344C86.3722 50.9618 86.1609 51.0467 85.8651 51.1316C85.5693 51.2166 85.2313 51.2166 84.8087 51.2166C84.682 51.2166 84.5552 51.2166 84.4284 51.2166C84.3016 51.2166 84.2171 51.2166 84.0904 51.2166C83.9636 51.2166 83.8791 51.2166 83.7523 51.2166C83.6255 51.2166 83.541 51.2166 83.4143 51.1741C83.2452 51.1741 83.1607 51.1316 83.0762 51.0467C82.9917 50.9618 82.9917 50.8344 82.9917 50.6646V46.7155C82.9917 46.5456 83.0339 46.4607 83.0762 46.3758C83.1607 46.2909 83.2452 46.2484 83.372 46.2484C83.4565 46.2484 83.541 46.2484 83.6678 46.2484C83.7946 46.2484 83.8791 46.2484 84.0059 46.2484C84.1326 46.2484 84.2594 46.2484 84.4284 46.2484C84.5552 46.2484 84.7242 46.2484 84.851 46.2484C85.2313 46.2484 85.5271 46.2909 85.7806 46.3333C86.0342 46.3758 86.2455 46.4607 86.4145 46.5457C86.5835 46.6306 86.7103 46.758 86.7948 46.9278C86.8793 47.0977 86.9215 47.2675 86.9215 47.4798C86.9215 47.7346 86.837 47.9894 86.7103 48.1592C86.5835 48.3291 86.3722 48.4565 86.0764 48.5414C86.4145 48.5839 86.668 48.7537 86.8793 48.9236C87.0061 49.051 87.1328 49.3057 87.1328 49.6454ZM85.6961 47.6072C85.6961 47.5223 85.6961 47.4374 85.6539 47.3524C85.6116 47.2675 85.5693 47.2251 85.4848 47.1826C85.4003 47.1401 85.3158 47.0977 85.189 47.0552C85.0623 47.0127 84.9355 47.0127 84.7665 47.0127C84.6397 47.0127 84.5129 47.0127 84.3862 47.0127C84.2594 47.0127 84.1749 47.0127 84.0904 47.0552V48.2017H84.7665C85.0623 48.2017 85.2735 48.1592 85.4426 48.0319C85.6539 47.9894 85.6961 47.8195 85.6961 47.6072ZM85.8651 49.6454C85.8651 49.5181 85.8651 49.4331 85.8229 49.3482C85.7806 49.2633 85.7384 49.1783 85.6539 49.1359C85.5693 49.0934 85.4426 49.051 85.3158 49.0085C85.189 48.966 85.02 48.966 84.851 48.966H84.1749V50.2824C84.2171 50.2824 84.3016 50.2824 84.3439 50.2824C84.3862 50.2824 84.4707 50.2824 84.5129 50.2824C84.5552 50.2824 84.6397 50.2824 84.682 50.2824C84.7242 50.2824 84.8087 50.2824 84.851 50.2824C85.02 50.2824 85.189 50.2824 85.3158 50.2399C85.4426 50.1975 85.5693 50.155 85.6116 50.1125C85.6961 50.0701 85.7384 49.9851 85.7806 49.9002C85.8229 49.8153 85.8651 49.7304 85.8651 49.6454Z"
    fill="#534741"/>
  <path
    d="M91.9502 51.0042C91.9502 51.0467 91.9502 51.0892 91.908 51.1316C91.8657 51.1741 91.8234 51.1741 91.7389 51.1741C91.6544 51.1741 91.5699 51.1741 91.4009 51.1741C91.2319 51.1741 91.1474 51.1741 91.0628 51.1741C90.9783 51.1741 90.9361 51.1316 90.9361 51.1316C90.8938 51.0892 90.8938 51.0467 90.8938 51.0042V50.6221C90.7248 50.8344 90.5135 50.9618 90.26 51.0892C90.0064 51.2166 89.7529 51.259 89.4571 51.259C89.2035 51.259 88.9923 51.2166 88.781 51.1741C88.5697 51.1316 88.4007 51.0042 88.2739 50.8769C88.1471 50.7495 88.0204 50.5796 87.9358 50.4098C87.8513 50.2399 87.8091 50.0276 87.8091 49.7728C87.8091 49.518 87.8513 49.2633 87.9781 49.0934C88.0626 48.8811 88.2316 48.7537 88.4429 48.6263C88.6542 48.4989 88.9077 48.414 89.2035 48.3291C89.4993 48.2866 89.8796 48.2442 90.26 48.2442H90.6825V47.9894C90.6825 47.862 90.6825 47.7346 90.6403 47.6072C90.598 47.4798 90.5558 47.3949 90.5135 47.3524C90.429 47.2675 90.3445 47.225 90.26 47.1826C90.1754 47.1401 90.0064 47.1401 89.8374 47.1401C89.6261 47.1401 89.4148 47.1826 89.2458 47.225C89.0768 47.2675 88.95 47.31 88.781 47.3949C88.6542 47.4374 88.5274 47.5223 88.4429 47.5647C88.3584 47.6072 88.2739 47.6497 88.2316 47.6497C88.1894 47.6497 88.1471 47.6497 88.1471 47.6072C88.1049 47.5647 88.1049 47.5647 88.0626 47.5223C88.0626 47.4798 88.0204 47.4374 88.0204 47.3524C88.0204 47.2675 88.0204 47.225 88.0204 47.1401C88.0204 47.0552 88.0204 46.9703 88.0626 46.8853C88.0626 46.8429 88.1049 46.7579 88.1471 46.7155C88.1894 46.673 88.2739 46.6306 88.4007 46.5456C88.5274 46.5032 88.6542 46.4182 88.8232 46.3758C88.9923 46.3333 89.1613 46.2909 89.3303 46.2484C89.4993 46.2059 89.7106 46.2059 89.9219 46.2059C90.26 46.2059 90.598 46.2484 90.8516 46.2909C91.1051 46.3333 91.3164 46.4607 91.4854 46.6306C91.6544 46.758 91.7812 46.9703 91.8234 47.1826C91.908 47.3949 91.9502 47.6921 91.9502 47.9894V51.0042ZM90.7248 49.0509H90.2177C90.0064 49.0509 89.8374 49.0509 89.6684 49.0934C89.5416 49.1359 89.4148 49.1783 89.3303 49.2208C89.2458 49.2633 89.1613 49.3482 89.119 49.4331C89.0768 49.518 89.0345 49.603 89.0345 49.7304C89.0345 49.9002 89.0768 50.0701 89.2035 50.1974C89.3303 50.3248 89.4993 50.3673 89.7106 50.3673C89.8797 50.3673 90.0487 50.3248 90.2177 50.2399C90.3867 50.155 90.5135 50.0276 90.6825 49.8153V49.0509H90.7248Z"
    fill="#534741"/>
  <path
    d="M97.8237 48.6263C97.8237 49.051 97.7815 49.3907 97.6969 49.7304C97.6124 50.0701 97.4857 50.3249 97.3166 50.5796C97.1476 50.7919 96.9363 51.0043 96.6828 51.0892C96.4293 51.1741 96.1335 51.259 95.8377 51.259C95.7109 51.259 95.5841 51.259 95.4574 51.2166C95.3306 51.1741 95.2461 51.1316 95.1193 51.0892C95.0348 51.0467 94.908 50.9618 94.8235 50.8769C94.739 50.7919 94.6122 50.707 94.5277 50.6221V52.7877C94.5277 52.8302 94.5277 52.8726 94.4854 52.8726C94.4854 52.9151 94.4432 52.9151 94.4009 52.9575C94.3587 52.9575 94.2742 53 94.1897 53C94.1051 53 94.0206 53 93.8939 53C93.7671 53 93.6826 53 93.5981 53C93.5136 53 93.4713 52.9575 93.3868 52.9575C93.3445 52.9575 93.3023 52.9151 93.3023 52.8726C93.3023 52.8302 93.26 52.8302 93.26 52.7877V46.4183C93.26 46.3758 93.26 46.3333 93.3023 46.3333C93.3023 46.2909 93.3445 46.2909 93.3868 46.2484C93.429 46.2484 93.4713 46.2059 93.5558 46.2059C93.6403 46.2059 93.7248 46.2059 93.8094 46.2059C93.8939 46.2059 93.9784 46.2059 94.0629 46.2059C94.1474 46.2059 94.1897 46.2484 94.2319 46.2484C94.2742 46.2484 94.3164 46.2909 94.3164 46.3333C94.3164 46.3758 94.3587 46.3758 94.3587 46.4183V46.9703C94.4855 46.8429 94.6122 46.7155 94.739 46.6306C94.8658 46.5457 94.9925 46.4607 95.1193 46.3758C95.2461 46.2909 95.3728 46.2484 95.5419 46.2059C95.7109 46.1635 95.8377 46.1635 96.0067 46.1635C96.3447 46.1635 96.6405 46.2484 96.8518 46.3758C97.1054 46.5032 97.2744 46.673 97.4434 46.9278C97.5702 47.1401 97.6969 47.4374 97.7815 47.7346C97.7815 47.9469 97.8237 48.2866 97.8237 48.6263ZM96.4715 48.7113C96.4715 48.4989 96.4715 48.3291 96.4292 48.1592C96.387 47.9894 96.3447 47.8195 96.3025 47.6921C96.218 47.5648 96.1335 47.4374 96.0489 47.3524C95.9222 47.2675 95.7954 47.2251 95.6264 47.2251C95.5419 47.2251 95.4573 47.2251 95.3728 47.2675C95.2883 47.31 95.2038 47.3524 95.1193 47.3949C95.0348 47.4374 94.9503 47.5223 94.8658 47.6072C94.7813 47.6922 94.6967 47.8195 94.57 47.9469V49.4331C94.739 49.6454 94.908 49.8578 95.077 49.9427C95.2461 50.0701 95.4151 50.1125 95.5841 50.1125C95.7531 50.1125 95.8799 50.0701 96.0067 49.9851C96.1335 49.9002 96.218 49.7728 96.3025 49.6454C96.387 49.5181 96.4293 49.3482 96.4715 49.1784C96.4715 49.051 96.4715 48.8811 96.4715 48.7113Z"
    fill="#534741"/>
  <path
    d="M100.106 47.8195C100.232 47.8195 100.317 47.8195 100.444 47.7771C100.57 47.7771 100.697 47.7771 100.824 47.7771C101.204 47.7771 101.5 47.8195 101.796 47.9044C102.049 47.9894 102.303 48.0743 102.472 48.2442C102.641 48.3715 102.768 48.5414 102.852 48.7537C102.937 48.966 102.979 49.1783 102.979 49.4331C102.979 49.6879 102.937 49.9427 102.852 50.155C102.768 50.3673 102.599 50.5796 102.43 50.707C102.218 50.8769 101.965 51.0042 101.669 51.0892C101.373 51.1741 100.993 51.2166 100.57 51.2166C100.444 51.2166 100.359 51.2166 100.232 51.2166C100.106 51.2166 100.021 51.2166 99.8943 51.2166C99.7676 51.2166 99.683 51.2166 99.5563 51.2166C99.4718 51.2166 99.345 51.2166 99.2605 51.1741C99.0915 51.1741 98.9647 51.0892 98.9224 51.0467C98.8802 51.0042 98.7957 50.8344 98.7957 50.6645V46.4182C98.7957 46.3758 98.7957 46.3333 98.8379 46.3333C98.8379 46.2909 98.8802 46.2909 98.9224 46.2484C98.9647 46.2484 99.0492 46.2059 99.0915 46.2059C99.176 46.2059 99.2605 46.2059 99.3872 46.2059C99.6408 46.2059 99.8098 46.2059 99.8943 46.2484C99.9788 46.2909 100.063 46.3333 100.063 46.4182V47.8195H100.106ZM101.711 49.518C101.711 49.3907 101.711 49.3057 101.669 49.1783C101.627 49.0934 101.585 49.0085 101.5 48.9236C101.416 48.8386 101.331 48.7962 101.204 48.7537C101.078 48.7112 100.908 48.7112 100.739 48.7112C100.613 48.7112 100.528 48.7112 100.401 48.7112C100.317 48.7112 100.232 48.7112 100.148 48.7112V50.1974C100.232 50.1974 100.359 50.1974 100.444 50.2399C100.528 50.2399 100.655 50.2399 100.782 50.2399C101.12 50.2399 101.373 50.155 101.542 50.0276C101.711 49.9002 101.711 49.7728 101.711 49.518ZM104.965 50.9618C104.965 51.0042 104.965 51.0467 104.923 51.0467C104.923 51.0892 104.881 51.0892 104.838 51.1316C104.796 51.1316 104.712 51.1741 104.627 51.1741C104.543 51.1741 104.458 51.1741 104.331 51.1741C104.204 51.1741 104.12 51.1741 104.035 51.1741C103.951 51.1741 103.909 51.1316 103.824 51.1316C103.782 51.1316 103.74 51.0892 103.74 51.0467C103.74 51.0042 103.697 51.0042 103.697 50.9618V46.4182C103.697 46.3758 103.697 46.3333 103.74 46.3333C103.74 46.2909 103.782 46.2909 103.824 46.2484C103.866 46.2484 103.951 46.2059 104.035 46.2059C104.12 46.2059 104.204 46.2059 104.331 46.2059C104.458 46.2059 104.585 46.2059 104.627 46.2059C104.712 46.2059 104.754 46.2484 104.838 46.2484C104.881 46.2484 104.923 46.2909 104.923 46.3333C104.923 46.3758 104.965 46.3758 104.965 46.4182V50.9618Z"
    fill="#534741"/>
  <path
    d="M109.191 52.6603C109.191 52.7028 109.191 52.7028 109.149 52.7452C109.106 52.7877 109.106 52.7877 109.064 52.7877C109.022 52.7877 108.98 52.8301 108.895 52.8301C108.811 52.8301 108.726 52.8301 108.642 52.8301C108.515 52.8301 108.43 52.8301 108.388 52.8301C108.346 52.8301 108.261 52.8301 108.219 52.7877C108.177 52.7877 108.135 52.7452 108.135 52.7452C108.135 52.7028 108.092 52.7028 108.092 52.6603V50.3673C108.092 50.2824 108.092 50.1974 108.135 50.155C108.177 50.1125 108.219 50.1125 108.346 50.1125H108.599C108.726 49.9851 108.811 49.8153 108.895 49.6454C108.98 49.4756 109.064 49.2208 109.149 48.966C109.233 48.7112 109.318 48.3715 109.36 47.9894C109.444 47.6072 109.487 47.1826 109.571 46.6306C109.571 46.5881 109.571 46.5032 109.614 46.4607C109.614 46.4182 109.656 46.3758 109.656 46.3333C109.698 46.2909 109.698 46.2909 109.74 46.2484C109.783 46.2484 109.825 46.2059 109.909 46.2059H112.698C112.825 46.2059 112.91 46.2484 112.952 46.2909C112.994 46.3758 113.036 46.4607 113.036 46.5881V50.0276H113.543C113.628 50.0276 113.712 50.0276 113.755 50.0701C113.797 50.1125 113.797 50.155 113.797 50.2824V52.5754C113.797 52.6178 113.797 52.6178 113.755 52.6603C113.712 52.7028 113.712 52.7028 113.67 52.7028C113.628 52.7028 113.586 52.7452 113.501 52.7452C113.417 52.7452 113.332 52.7452 113.248 52.7452C113.163 52.7452 113.036 52.7452 112.994 52.7452C112.952 52.7452 112.867 52.7452 112.825 52.7028C112.783 52.7028 112.74 52.6603 112.74 52.6603C112.74 52.6178 112.698 52.6178 112.698 52.5754V51.0892H109.149V52.6603H109.191ZM111.811 47.2675H110.712C110.67 47.6921 110.585 48.0743 110.543 48.3715C110.501 48.6688 110.416 48.9236 110.332 49.1783C110.247 49.3907 110.163 49.603 110.078 49.7304C109.994 49.8577 109.909 49.9851 109.825 50.1125H111.811V47.2675Z"
    fill="#534741"/>
  <path
    d="M118.868 50.9618C118.868 51.0043 118.868 51.0467 118.825 51.0467C118.825 51.0892 118.783 51.0892 118.741 51.1316C118.698 51.1316 118.614 51.1741 118.529 51.1741C118.445 51.1741 118.36 51.1741 118.234 51.1741C118.107 51.1741 118.022 51.1741 117.938 51.1741C117.853 51.1741 117.769 51.1316 117.727 51.1316C117.684 51.1316 117.642 51.0892 117.642 51.0467C117.642 51.0043 117.6 51.0043 117.6 50.9618V47.2675H116.67C116.628 47.8195 116.543 48.2866 116.459 48.6688C116.374 49.0934 116.29 49.4331 116.163 49.7304C116.079 50.0276 115.952 50.2824 115.825 50.4522C115.698 50.6645 115.571 50.7919 115.402 50.9193C115.233 51.0467 115.064 51.1316 114.895 51.1741C114.726 51.2166 114.515 51.259 114.346 51.259C114.304 51.259 114.262 51.259 114.219 51.259C114.177 51.259 114.177 51.2166 114.135 51.1741C114.135 51.1316 114.093 51.0892 114.093 51.0043C114.093 50.9193 114.093 50.8344 114.093 50.707C114.093 50.5796 114.093 50.4947 114.093 50.4098C114.093 50.3248 114.093 50.2824 114.135 50.2399C114.135 50.1975 114.177 50.155 114.177 50.155C114.219 50.155 114.219 50.155 114.262 50.155C114.346 50.155 114.431 50.155 114.515 50.1125C114.6 50.0701 114.684 49.9851 114.769 49.9002C114.853 49.8153 114.938 49.6879 114.98 49.5181C115.064 49.3482 115.107 49.1359 115.149 48.8811C115.191 48.6263 115.276 48.3291 115.318 47.9894C115.36 47.6497 115.402 47.2251 115.445 46.758C115.445 46.6306 115.487 46.5032 115.529 46.4607C115.572 46.4183 115.656 46.3758 115.783 46.3758H118.403C118.529 46.3758 118.614 46.4183 118.656 46.4607C118.698 46.5457 118.741 46.6306 118.741 46.758V50.9618H118.868Z"
    fill="#534741"/>
  <path
    d="M124.023 50.9618C124.023 51.0042 124.023 51.0467 123.981 51.0467C123.981 51.0892 123.938 51.0892 123.896 51.1316C123.854 51.1316 123.769 51.1741 123.685 51.1741C123.6 51.1741 123.474 51.1741 123.347 51.1741C123.22 51.1741 123.135 51.1741 123.051 51.1741C122.966 51.1741 122.924 51.1741 122.84 51.1316C122.797 51.1316 122.755 51.0892 122.755 51.0467C122.755 51.0042 122.713 51.0042 122.713 50.9618V49.2208H122.375C122.206 49.2208 122.079 49.2208 121.995 49.2633C121.91 49.3057 121.826 49.3482 121.741 49.3907C121.656 49.4756 121.614 49.5605 121.53 49.6454C121.445 49.7728 121.403 49.9002 121.318 50.0701L121.023 50.8344C121.023 50.8769 120.98 50.9193 120.938 50.9618C120.896 51.0042 120.854 51.0042 120.811 51.0467C120.769 51.0467 120.685 51.0892 120.6 51.0892C120.516 51.0892 120.389 51.0892 120.262 51.0892C120.135 51.0892 120.051 51.0892 119.966 51.0892C119.882 51.0892 119.839 51.0892 119.755 51.0892C119.713 51.0892 119.67 51.0467 119.628 51.0467C119.586 51.0467 119.586 51.0042 119.586 50.9618C119.586 50.9193 119.586 50.8769 119.628 50.7919C119.67 50.707 119.713 50.6221 119.755 50.4522L120.051 49.7304C120.135 49.5181 120.262 49.3482 120.389 49.1783C120.516 49.051 120.685 48.9236 120.854 48.8386C120.516 48.7537 120.304 48.6263 120.093 48.414C119.924 48.2017 119.797 47.9469 119.797 47.6072C119.797 47.3524 119.839 47.1401 119.924 46.9703C120.008 46.758 120.178 46.6306 120.347 46.5032C120.558 46.3758 120.769 46.2484 121.065 46.2059C121.361 46.121 121.699 46.0786 122.037 46.0786C122.121 46.0786 122.248 46.0786 122.375 46.0786C122.502 46.0786 122.628 46.0786 122.755 46.0786C122.882 46.0786 123.009 46.0786 123.135 46.121C123.262 46.121 123.389 46.121 123.474 46.1635C123.6 46.1635 123.685 46.2059 123.727 46.2909C123.769 46.3758 123.812 46.4607 123.812 46.5456V50.9618H124.023ZM122.755 47.0977C122.671 47.0977 122.544 47.0552 122.459 47.0552C122.375 47.0552 122.248 47.0552 122.164 47.0552C121.995 47.0552 121.826 47.0552 121.699 47.0977C121.572 47.1401 121.487 47.1826 121.403 47.225C121.318 47.2675 121.276 47.3524 121.234 47.4374C121.192 47.5223 121.192 47.6072 121.192 47.6921C121.192 47.7771 121.192 47.9045 121.234 47.9894C121.276 48.0743 121.318 48.1592 121.403 48.2017C121.487 48.2442 121.572 48.2866 121.699 48.3291C121.826 48.3716 121.952 48.3716 122.164 48.3716H122.713V47.0977H122.755Z"
    fill="#534741"/>
  <path
    d="M131.84 49.6454C131.84 49.9002 131.798 50.155 131.714 50.3248C131.629 50.5372 131.46 50.707 131.291 50.8344C131.08 50.9618 130.868 51.0467 130.573 51.1316C130.277 51.2166 129.939 51.2166 129.516 51.2166C129.389 51.2166 129.263 51.2166 129.136 51.2166C129.009 51.2166 128.925 51.2166 128.798 51.2166C128.671 51.2166 128.587 51.2166 128.46 51.2166C128.333 51.2166 128.249 51.2166 128.122 51.1741C127.953 51.1741 127.868 51.1316 127.784 51.0467C127.699 50.9618 127.699 50.8344 127.699 50.6646V46.7155C127.699 46.5456 127.741 46.4607 127.784 46.3758C127.868 46.2909 127.953 46.2484 128.08 46.2484C128.164 46.2484 128.249 46.2484 128.375 46.2484C128.502 46.2484 128.587 46.2484 128.713 46.2484C128.84 46.2484 128.967 46.2484 129.136 46.2484C129.263 46.2484 129.432 46.2484 129.559 46.2484C129.939 46.2484 130.235 46.2909 130.488 46.3333C130.742 46.3758 130.953 46.4607 131.122 46.5457C131.291 46.6306 131.418 46.758 131.502 46.9278C131.587 47.0977 131.629 47.2675 131.629 47.4798C131.629 47.7346 131.545 47.9894 131.418 48.1592C131.291 48.3291 131.08 48.4565 130.784 48.5414C131.122 48.5839 131.376 48.7537 131.587 48.9236C131.756 49.051 131.84 49.3057 131.84 49.6454ZM130.446 47.6072C130.446 47.5223 130.446 47.4374 130.404 47.3524C130.361 47.2675 130.319 47.2251 130.235 47.1826C130.15 47.1401 130.066 47.0977 129.939 47.0552C129.812 47.0127 129.685 47.0127 129.516 47.0127C129.389 47.0127 129.263 47.0127 129.136 47.0127C129.009 47.0127 128.925 47.0127 128.84 47.0552V48.2017H129.516C129.812 48.2017 130.023 48.1592 130.192 48.0319C130.361 47.9894 130.446 47.8195 130.446 47.6072ZM130.573 49.6454C130.573 49.5181 130.573 49.4331 130.53 49.3482C130.488 49.2633 130.446 49.1783 130.361 49.1359C130.277 49.0934 130.15 49.051 130.023 49.0085C129.897 48.966 129.728 48.966 129.559 48.966H128.882V50.2824C128.925 50.2824 129.009 50.2824 129.051 50.2824C129.094 50.2824 129.178 50.2824 129.22 50.2824C129.263 50.2824 129.347 50.2824 129.389 50.2824C129.432 50.2824 129.516 50.2824 129.559 50.2824C129.728 50.2824 129.897 50.2824 130.023 50.2399C130.15 50.1975 130.277 50.155 130.319 50.1125C130.404 50.0701 130.446 49.9851 130.488 49.9002C130.573 49.8153 130.573 49.7304 130.573 49.6454Z"
    fill="#534741"/>
  <path
    d="M136.7 51.0042C136.7 51.0467 136.7 51.0892 136.657 51.1316C136.615 51.1741 136.573 51.1741 136.488 51.1741C136.404 51.1741 136.319 51.1741 136.15 51.1741C135.981 51.1741 135.897 51.1741 135.812 51.1741C135.728 51.1741 135.686 51.1316 135.686 51.1316C135.643 51.0892 135.643 51.0467 135.643 51.0042V50.6221C135.474 50.8344 135.263 50.9618 135.009 51.0892C134.756 51.2166 134.502 51.259 134.207 51.259C133.953 51.259 133.742 51.2166 133.531 51.1741C133.319 51.1316 133.15 51.0042 133.023 50.8769C132.897 50.7495 132.77 50.5796 132.685 50.4098C132.601 50.2399 132.559 50.0276 132.559 49.7728C132.559 49.518 132.601 49.2633 132.728 49.0934C132.812 48.8811 132.981 48.7537 133.192 48.6263C133.404 48.4989 133.657 48.414 133.953 48.3291C134.249 48.2866 134.629 48.2442 135.009 48.2442H135.432V47.9894C135.432 47.862 135.432 47.7346 135.39 47.6072C135.348 47.4798 135.305 47.3949 135.263 47.3524C135.178 47.2675 135.094 47.225 135.009 47.1826C134.883 47.1401 134.756 47.1401 134.587 47.1401C134.376 47.1401 134.164 47.1826 133.995 47.225C133.826 47.2675 133.7 47.31 133.531 47.3949C133.404 47.4374 133.277 47.5223 133.192 47.5647C133.108 47.6072 133.023 47.6497 132.981 47.6497C132.939 47.6497 132.897 47.6497 132.897 47.6072C132.854 47.5647 132.854 47.5647 132.812 47.5223C132.812 47.4798 132.77 47.4374 132.77 47.3524C132.77 47.2675 132.77 47.225 132.77 47.1401C132.77 47.0552 132.77 46.9703 132.812 46.8853C132.812 46.8429 132.854 46.7579 132.897 46.7155C132.939 46.673 133.023 46.6306 133.15 46.5456C133.277 46.5032 133.404 46.4182 133.573 46.3758C133.742 46.3333 133.911 46.2909 134.08 46.2484C134.249 46.2059 134.46 46.2059 134.671 46.2059C135.009 46.2059 135.348 46.2484 135.601 46.2909C135.855 46.3758 136.066 46.4607 136.235 46.6306C136.404 46.758 136.531 46.9703 136.573 47.1826C136.657 47.3949 136.7 47.6921 136.7 47.9894V51.0042ZM135.432 49.0509H134.925C134.714 49.0509 134.545 49.0509 134.376 49.0934C134.249 49.1359 134.122 49.1783 134.038 49.2208C133.953 49.2633 133.869 49.3482 133.826 49.4331C133.784 49.518 133.742 49.603 133.742 49.7304C133.742 49.9002 133.784 50.0701 133.911 50.1974C134.038 50.3248 134.207 50.3673 134.418 50.3673C134.587 50.3673 134.756 50.3248 134.925 50.2399C135.094 50.155 135.221 50.0276 135.39 49.8153V49.0509H135.432Z"
    fill="#534741"/>
  <path
    d="M144.644 50.7495C144.644 50.8769 144.602 51.0042 144.56 51.0467C144.517 51.1316 144.433 51.1316 144.306 51.1316H138.348C138.221 51.1316 138.137 51.0892 138.094 51.0467C138.052 50.9618 138.01 50.8769 138.01 50.7495V46.4182C138.01 46.3758 138.01 46.3333 138.052 46.3333C138.052 46.2909 138.094 46.2909 138.179 46.2484C138.221 46.2484 138.306 46.2059 138.39 46.2059C138.475 46.2059 138.559 46.2059 138.686 46.2059C138.813 46.2059 138.897 46.2059 138.982 46.2059C139.066 46.2059 139.108 46.2484 139.151 46.2484C139.193 46.2484 139.235 46.2909 139.235 46.3333C139.235 46.3758 139.277 46.3758 139.277 46.4182V50.0701H140.714V46.4182C140.714 46.3758 140.714 46.3333 140.756 46.3333C140.756 46.2909 140.799 46.2909 140.841 46.2484C140.883 46.2484 140.925 46.2059 141.01 46.2059C141.094 46.2059 141.179 46.2059 141.306 46.2059C141.433 46.2059 141.517 46.2059 141.602 46.2059C141.686 46.2059 141.728 46.2484 141.813 46.2484C141.855 46.2484 141.897 46.2909 141.897 46.3333C141.897 46.3758 141.94 46.3758 141.94 46.4182V50.0701H143.376V46.4182C143.376 46.3758 143.376 46.3333 143.419 46.3333C143.419 46.2909 143.461 46.2909 143.503 46.2484C143.545 46.2484 143.63 46.2059 143.714 46.2059C143.799 46.2059 143.883 46.2059 144.01 46.2059C144.137 46.2059 144.221 46.2059 144.306 46.2059C144.391 46.2059 144.475 46.2484 144.517 46.2484C144.56 46.2484 144.602 46.2909 144.644 46.3333C144.686 46.3758 144.686 46.3758 144.686 46.4182V50.7495H144.644Z"
    fill="#534741"/>
  <path
    d="M150.095 48.5414C150.095 48.7113 150.053 48.7962 150.011 48.8811C149.926 48.966 149.842 49.0085 149.715 49.0085H146.968C146.968 49.2208 147.01 49.3907 147.053 49.5181C147.095 49.6879 147.179 49.8153 147.264 49.9427C147.348 50.0701 147.475 50.155 147.644 50.1975C147.813 50.2399 147.982 50.2824 148.194 50.2824C148.405 50.2824 148.616 50.2824 148.785 50.2399C148.954 50.1975 149.081 50.155 149.208 50.1125C149.335 50.0701 149.419 50.0276 149.504 49.9851C149.588 49.9427 149.63 49.9427 149.715 49.9427C149.757 49.9427 149.757 49.9427 149.799 49.9427C149.842 49.9427 149.842 49.9851 149.842 50.0276C149.842 50.0701 149.884 50.1125 149.884 50.155C149.884 50.1975 149.884 50.2824 149.884 50.3673C149.884 50.4522 149.884 50.4947 149.884 50.5796C149.884 50.6221 149.884 50.6646 149.884 50.707C149.884 50.7495 149.884 50.7919 149.842 50.7919C149.842 50.8344 149.799 50.8344 149.799 50.8769C149.799 50.9193 149.715 50.9193 149.63 50.9618C149.546 51.0043 149.419 51.0467 149.25 51.0892C149.081 51.1316 148.912 51.1741 148.743 51.1741C148.532 51.2166 148.32 51.2166 148.109 51.2166C147.687 51.2166 147.348 51.1741 147.053 51.0467C146.757 50.9618 146.503 50.7919 146.292 50.5796C146.081 50.3673 145.954 50.1125 145.827 49.7728C145.743 49.4756 145.658 49.0934 145.658 48.6688C145.658 48.2442 145.7 47.9045 145.827 47.5648C145.912 47.2251 146.081 46.9703 146.292 46.758C146.503 46.5456 146.715 46.3758 147.01 46.2484C147.306 46.121 147.602 46.0786 147.982 46.0786C148.363 46.0786 148.701 46.121 148.954 46.2484C149.208 46.3758 149.461 46.5032 149.63 46.7155C149.799 46.9278 149.926 47.1401 150.011 47.4374C150.095 47.6921 150.137 47.9894 150.137 48.3291V48.5414H150.095ZM148.87 48.2017C148.87 47.8195 148.827 47.5648 148.658 47.3524C148.489 47.1401 148.278 47.0552 147.94 47.0552C147.771 47.0552 147.644 47.0977 147.517 47.1401C147.391 47.1826 147.306 47.2675 147.222 47.3949C147.137 47.4798 147.095 47.6072 147.053 47.7771C147.01 47.9045 146.968 48.0743 146.968 48.2442H148.87V48.2017Z"
    fill="#534741"/>
  <path
    d="M154.11 46.8004C154.11 46.8854 154.11 47.0127 154.11 47.0552C154.11 47.1401 154.067 47.1826 154.067 47.2251C154.067 47.2675 154.025 47.31 154.025 47.31C153.983 47.31 153.983 47.3524 153.941 47.3524H152.462V50.9618C152.462 51.0043 152.462 51.0467 152.419 51.0467C152.419 51.0892 152.377 51.0892 152.335 51.1316C152.293 51.1316 152.208 51.1741 152.123 51.1741C152.039 51.1741 151.954 51.1741 151.828 51.1741C151.701 51.1741 151.616 51.1741 151.532 51.1741C151.447 51.1741 151.405 51.1316 151.321 51.1316C151.278 51.1316 151.236 51.0892 151.236 51.0467C151.236 51.0043 151.194 51.0043 151.194 50.9618V46.6306C151.194 46.5032 151.236 46.3758 151.278 46.3333C151.321 46.2484 151.405 46.2484 151.532 46.2484H153.941C153.983 46.2484 153.983 46.2484 154.025 46.2909C154.067 46.2909 154.067 46.3333 154.067 46.3758C154.067 46.4183 154.11 46.4607 154.11 46.5457C154.11 46.6306 154.11 46.7155 154.11 46.8004Z"
    fill="#534741"/>
  <path
    d="M159.349 48.6688C159.349 49.051 159.307 49.3907 159.18 49.7304C159.096 50.0701 158.927 50.3248 158.715 50.5372C158.504 50.7495 158.251 50.9618 157.955 51.0892C157.659 51.2166 157.279 51.259 156.856 51.259C156.434 51.259 156.095 51.2166 155.8 51.0892C155.504 50.9618 155.25 50.7919 155.039 50.5796C154.828 50.3673 154.701 50.1125 154.617 49.7728C154.532 49.4756 154.49 49.0934 154.49 48.7113C154.49 48.3291 154.532 47.9469 154.659 47.6497C154.743 47.31 154.912 47.0552 155.124 46.8004C155.335 46.5456 155.588 46.3758 155.884 46.2484C156.18 46.121 156.56 46.0786 156.983 46.0786C157.405 46.0786 157.744 46.121 158.039 46.2484C158.335 46.3758 158.589 46.5032 158.8 46.7155C159.011 46.9278 159.138 47.1826 159.222 47.5223C159.307 47.862 159.349 48.2442 159.349 48.6688ZM158.039 48.7113C158.039 48.4989 158.039 48.2866 157.997 48.0743C157.955 47.9045 157.913 47.7346 157.828 47.5648C157.744 47.4374 157.617 47.31 157.49 47.225C157.363 47.1401 157.152 47.0977 156.941 47.0977C156.772 47.0977 156.603 47.1401 156.434 47.1826C156.307 47.2675 156.18 47.3524 156.096 47.4798C156.011 47.6072 155.926 47.7771 155.884 47.9469C155.842 48.1168 155.8 48.3716 155.8 48.5839C155.8 48.7962 155.8 49.0085 155.842 49.2208C155.884 49.3907 155.926 49.5605 156.011 49.7304C156.095 49.8578 156.222 49.9851 156.349 50.0701C156.476 50.155 156.687 50.1975 156.898 50.1975C157.11 50.1975 157.279 50.155 157.405 50.1125C157.532 50.0276 157.659 49.9427 157.744 49.8153C157.828 49.6879 157.913 49.518 157.955 49.3482C157.997 49.1359 158.039 48.9236 158.039 48.7113Z"
    fill="#534741"/>
  <path
    d="M169.11 50.9618C169.11 51.0467 169.068 51.0892 168.984 51.1316C168.899 51.1741 168.73 51.1741 168.519 51.1741C168.392 51.1741 168.265 51.1741 168.181 51.1741C168.096 51.1741 168.054 51.1741 168.012 51.1316C167.969 51.0892 167.927 51.0892 167.927 51.0892C167.927 51.0467 167.885 51.0467 167.885 51.0043L167.631 48.5414C167.631 48.4565 167.631 48.3716 167.589 48.2442C167.589 48.1168 167.589 48.0319 167.547 47.9045C167.547 47.7771 167.547 47.6921 167.505 47.5648C167.505 47.4374 167.505 47.3524 167.462 47.2675V47.1401C167.42 47.2251 167.42 47.3524 167.378 47.4374C167.336 47.5648 167.336 47.6497 167.293 47.7771C167.251 47.9045 167.209 47.9894 167.209 48.1168C167.167 48.2442 167.167 48.3291 167.124 48.414L166.321 50.9193C166.321 50.9618 166.279 51.0043 166.279 51.0467C166.237 51.0892 166.195 51.0892 166.152 51.1316C166.11 51.1316 166.026 51.1741 165.983 51.1741C165.899 51.1741 165.814 51.1741 165.688 51.1741C165.603 51.1741 165.476 51.1741 165.434 51.1741C165.35 51.1741 165.307 51.1316 165.265 51.1316C165.223 51.1316 165.181 51.0892 165.138 51.0467C165.096 51.0043 165.096 50.9618 165.096 50.9193L164.335 48.414C164.293 48.3291 164.293 48.2442 164.251 48.1168C164.209 47.9894 164.166 47.9045 164.166 47.7771C164.124 47.6497 164.124 47.5648 164.082 47.4374C164.04 47.31 164.04 47.2251 163.997 47.1401V47.2675C163.997 47.3524 163.997 47.4374 163.997 47.5648C163.997 47.6921 163.997 47.7771 163.955 47.9045C163.955 48.0319 163.955 48.1168 163.913 48.2442C163.913 48.3716 163.913 48.4565 163.871 48.5414L163.617 50.9618C163.617 51.0043 163.617 51.0467 163.575 51.0892C163.575 51.1316 163.533 51.1316 163.49 51.1741C163.448 51.1741 163.364 51.2166 163.279 51.2166C163.194 51.2166 163.11 51.2166 162.941 51.2166C162.814 51.2166 162.73 51.2166 162.645 51.2166C162.561 51.2166 162.518 51.2166 162.476 51.1741C162.434 51.1741 162.392 51.1316 162.392 51.0892C162.392 51.0467 162.392 51.0043 162.392 50.9618L162.856 46.7155C162.856 46.5881 162.941 46.4607 162.983 46.3758C163.068 46.2909 163.194 46.2484 163.321 46.2484H163.955C164.082 46.2484 164.209 46.2484 164.293 46.2909C164.378 46.2909 164.462 46.3333 164.547 46.4183C164.631 46.4607 164.673 46.5457 164.716 46.6306C164.758 46.7155 164.8 46.8429 164.842 46.9703L165.35 48.5414C165.392 48.6263 165.392 48.7537 165.434 48.8811C165.476 49.0085 165.476 49.0934 165.519 49.2208C165.561 49.3482 165.561 49.4331 165.603 49.5605C165.645 49.6454 165.645 49.7728 165.688 49.8578C165.688 49.7728 165.73 49.6454 165.772 49.5605C165.814 49.4756 165.814 49.3482 165.857 49.2208C165.899 49.0934 165.899 49.0085 165.941 48.8811C165.983 48.7537 165.983 48.6688 166.026 48.5839L166.533 47.0127C166.575 46.8854 166.617 46.8004 166.66 46.7155C166.702 46.6306 166.744 46.5456 166.829 46.5032C166.913 46.4607 166.955 46.4183 167.082 46.3758C167.167 46.3333 167.293 46.3333 167.42 46.3333H168.054C168.223 46.3333 168.35 46.3758 168.434 46.4607C168.519 46.5457 168.561 46.6306 168.561 46.8004L169.11 50.9618Z"
    fill="#534741"/>
  <path
    d="M174.012 51.0042C174.012 51.0467 174.012 51.0892 173.97 51.1316C173.928 51.1741 173.885 51.1741 173.801 51.1741C173.716 51.1741 173.632 51.1741 173.463 51.1741C173.294 51.1741 173.209 51.1741 173.125 51.1741C173.04 51.1741 172.998 51.1316 172.998 51.1316C172.956 51.0892 172.956 51.0467 172.956 51.0042V50.6221C172.787 50.8344 172.576 50.9618 172.322 51.0892C172.068 51.2166 171.815 51.259 171.519 51.259C171.266 51.259 171.054 51.2166 170.843 51.1741C170.632 51.1316 170.463 51.0042 170.336 50.8769C170.209 50.7495 170.082 50.5796 169.998 50.4098C169.913 50.2399 169.871 50.0276 169.871 49.7728C169.871 49.518 169.913 49.2633 170.04 49.0934C170.125 48.8811 170.294 48.7537 170.505 48.6263C170.716 48.4989 170.97 48.414 171.266 48.3291C171.561 48.2866 171.942 48.2442 172.322 48.2442H172.745V47.9894C172.745 47.862 172.745 47.7346 172.702 47.6072C172.66 47.4798 172.618 47.3949 172.575 47.3524C172.491 47.2675 172.406 47.225 172.322 47.1826C172.237 47.1401 172.068 47.1401 171.899 47.1401C171.688 47.1401 171.477 47.1826 171.308 47.225C171.139 47.2675 171.012 47.31 170.843 47.3949C170.716 47.4374 170.589 47.5223 170.505 47.5647C170.42 47.6072 170.336 47.6497 170.294 47.6497C170.251 47.6497 170.209 47.6497 170.209 47.6072C170.167 47.5647 170.167 47.5647 170.125 47.5223C170.125 47.4798 170.082 47.4374 170.082 47.3524C170.082 47.2675 170.082 47.225 170.082 47.1401C170.082 47.0552 170.082 46.9703 170.125 46.8853C170.125 46.8429 170.167 46.7579 170.209 46.7155C170.251 46.673 170.336 46.6306 170.463 46.5456C170.589 46.5032 170.716 46.4182 170.885 46.3758C171.054 46.3333 171.223 46.2909 171.392 46.2484C171.561 46.2059 171.773 46.2059 171.984 46.2059C172.322 46.2059 172.66 46.2484 172.914 46.2909C173.167 46.3333 173.378 46.4607 173.547 46.6306C173.716 46.758 173.843 46.9703 173.885 47.1826C173.97 47.3949 174.012 47.6921 174.012 47.9894V51.0042ZM172.745 49.0509H172.237C172.026 49.0509 171.857 49.0509 171.688 49.0934C171.561 49.1359 171.435 49.1783 171.35 49.2208C171.266 49.2633 171.181 49.3482 171.139 49.4331C171.097 49.518 171.054 49.603 171.054 49.7304C171.054 49.9002 171.097 50.0701 171.223 50.1974C171.35 50.3248 171.519 50.3673 171.73 50.3673C171.899 50.3673 172.068 50.3248 172.237 50.2399C172.406 50.155 172.533 50.0276 172.702 49.8153V49.0509H172.745Z"
    fill="#534741"/>
  <path
    d="M179.505 50.9618C179.505 51.0043 179.505 51.0467 179.463 51.0467C179.463 51.0892 179.421 51.0892 179.379 51.1316C179.336 51.1316 179.252 51.1741 179.167 51.1741C179.083 51.1741 178.998 51.1741 178.872 51.1741C178.745 51.1741 178.66 51.1741 178.576 51.1741C178.491 51.1741 178.407 51.1316 178.365 51.1316C178.322 51.1316 178.28 51.0892 178.28 51.0467C178.28 51.0043 178.238 51.0043 178.238 50.9618V47.2675H177.308C177.266 47.8195 177.181 48.2866 177.097 48.6688C177.012 49.0934 176.928 49.4331 176.801 49.7304C176.717 50.0276 176.59 50.2824 176.463 50.4522C176.336 50.6645 176.209 50.7919 176.04 50.9193C175.871 51.0467 175.702 51.1316 175.533 51.1741C175.364 51.2166 175.153 51.259 174.984 51.259C174.942 51.259 174.899 51.259 174.857 51.259C174.815 51.259 174.815 51.2166 174.773 51.1741C174.773 51.1316 174.73 51.0892 174.73 51.0043C174.73 50.9193 174.73 50.8344 174.73 50.707C174.73 50.5796 174.73 50.4947 174.73 50.4098C174.73 50.3248 174.73 50.2824 174.773 50.2399C174.773 50.1975 174.815 50.155 174.815 50.155C174.857 50.155 174.857 50.155 174.899 50.155C174.984 50.155 175.069 50.155 175.153 50.1125C175.238 50.0701 175.322 49.9851 175.407 49.9002C175.491 49.8153 175.576 49.6879 175.618 49.5181C175.702 49.3482 175.745 49.1359 175.787 48.8811C175.829 48.6263 175.914 48.3291 175.956 47.9894C175.998 47.6497 176.04 47.2251 176.083 46.758C176.083 46.6306 176.125 46.5032 176.167 46.4607C176.209 46.3758 176.294 46.3758 176.421 46.3758H179.041C179.167 46.3758 179.252 46.4183 179.294 46.4607C179.336 46.5457 179.379 46.6306 179.379 46.758V50.9618H179.505Z"
    fill="#534741"/>
  <path
    d="M182.041 47.8195C182.168 47.8195 182.252 47.8195 182.379 47.7771C182.506 47.7771 182.632 47.7771 182.759 47.7771C183.14 47.7771 183.435 47.8195 183.731 47.9044C183.985 47.9894 184.238 48.0743 184.407 48.2442C184.576 48.3715 184.703 48.5414 184.788 48.7537C184.872 48.966 184.914 49.1783 184.914 49.4331C184.914 49.6879 184.872 49.9427 184.788 50.155C184.703 50.3673 184.534 50.5796 184.365 50.707C184.154 50.8769 183.9 51.0042 183.604 51.0892C183.309 51.1741 182.928 51.2166 182.506 51.2166C182.379 51.2166 182.294 51.2166 182.168 51.2166C182.041 51.2166 181.956 51.2166 181.83 51.2166C181.703 51.2166 181.618 51.2166 181.492 51.2166C181.407 51.2166 181.28 51.2166 181.196 51.1741C181.027 51.1741 180.9 51.0892 180.858 51.0467C180.815 51.0042 180.731 50.8344 180.731 50.6645V46.4182C180.731 46.3758 180.731 46.3333 180.773 46.3333C180.773 46.2909 180.815 46.2909 180.858 46.2484C180.9 46.2484 180.984 46.2059 181.027 46.2059C181.111 46.2059 181.196 46.2059 181.323 46.2059C181.576 46.2059 181.745 46.2059 181.83 46.2484C181.914 46.2909 181.999 46.3333 181.999 46.4182V47.8195H182.041ZM183.647 49.518C183.647 49.3907 183.647 49.3057 183.604 49.1783C183.562 49.0934 183.52 49.0085 183.435 48.9236C183.351 48.8386 183.266 48.7962 183.14 48.7537C183.013 48.7112 182.844 48.7112 182.675 48.7112C182.548 48.7112 182.463 48.7112 182.337 48.7112C182.252 48.7112 182.168 48.7112 182.083 48.7112V50.1974C182.168 50.1974 182.294 50.1974 182.379 50.2399C182.463 50.2399 182.59 50.2399 182.717 50.2399C183.055 50.2399 183.309 50.155 183.478 50.0276C183.647 49.9002 183.647 49.7728 183.647 49.518ZM186.9 50.9618C186.9 51.0042 186.9 51.0467 186.858 51.0467C186.858 51.0892 186.816 51.0892 186.774 51.1316C186.731 51.1316 186.647 51.1741 186.562 51.1741C186.478 51.1741 186.393 51.1741 186.267 51.1741C186.14 51.1741 186.055 51.1741 185.971 51.1741C185.886 51.1741 185.844 51.1316 185.759 51.1316C185.717 51.1316 185.675 51.0892 185.675 51.0467C185.675 51.0042 185.633 51.0042 185.633 50.9618V46.4182C185.633 46.3758 185.633 46.3333 185.675 46.3333C185.675 46.2909 185.717 46.2909 185.759 46.2484C185.802 46.2484 185.886 46.2059 185.971 46.2059C186.055 46.2059 186.14 46.2059 186.267 46.2059C186.393 46.2059 186.52 46.2059 186.562 46.2059C186.647 46.2059 186.689 46.2484 186.774 46.2484C186.816 46.2484 186.858 46.2909 186.858 46.3333C186.858 46.3758 186.9 46.3758 186.9 46.4182V50.9618Z"
    fill="#534741"/>
  <path
    d="M194.845 50.7495C194.845 50.8769 194.802 51.0042 194.76 51.0467C194.718 51.1316 194.633 51.1316 194.507 51.1316H188.549C188.422 51.1316 188.337 51.0892 188.295 51.0467C188.253 50.9618 188.21 50.8769 188.21 50.7495V46.4182C188.21 46.3758 188.21 46.3333 188.253 46.3333C188.253 46.2909 188.295 46.2909 188.379 46.2484C188.422 46.2484 188.506 46.2059 188.591 46.2059C188.675 46.2059 188.76 46.2059 188.887 46.2059C189.013 46.2059 189.098 46.2059 189.182 46.2059C189.267 46.2059 189.309 46.2484 189.351 46.2484C189.394 46.2484 189.436 46.2909 189.436 46.3333C189.436 46.3758 189.478 46.3758 189.478 46.4182V50.0701H190.915V46.4182C190.915 46.3758 190.915 46.3333 190.957 46.3333C190.957 46.2909 190.999 46.2909 191.042 46.2484C191.084 46.2484 191.126 46.2059 191.211 46.2059C191.295 46.2059 191.38 46.2059 191.506 46.2059C191.633 46.2059 191.718 46.2059 191.802 46.2059C191.887 46.2059 191.929 46.2484 192.014 46.2484C192.056 46.2484 192.098 46.2909 192.098 46.3333C192.098 46.3758 192.14 46.3758 192.14 46.4182V50.0701H193.577V46.4182C193.577 46.3758 193.577 46.3333 193.619 46.3333C193.619 46.2909 193.662 46.2909 193.704 46.2484C193.746 46.2484 193.831 46.2059 193.915 46.2059C194 46.2059 194.084 46.2059 194.211 46.2059C194.338 46.2059 194.422 46.2059 194.507 46.2059C194.591 46.2059 194.676 46.2484 194.718 46.2484C194.76 46.2484 194.802 46.2909 194.845 46.3333C194.887 46.3758 194.887 46.3758 194.887 46.4182V50.7495H194.845Z"
    fill="#534741"/>
  <path
    d="M200 51.0042C200 51.0467 200 51.0892 199.958 51.1316C199.916 51.1741 199.873 51.1741 199.789 51.1741C199.704 51.1741 199.62 51.1741 199.451 51.1741C199.282 51.1741 199.197 51.1741 199.113 51.1741C199.028 51.1741 198.986 51.1316 198.986 51.1316C198.944 51.0892 198.944 51.0467 198.944 51.0042V50.6221C198.775 50.8344 198.563 50.9618 198.31 51.0892C198.056 51.2166 197.803 51.259 197.507 51.259C197.253 51.259 197.042 51.2166 196.831 51.1741C196.619 51.1316 196.45 51.0042 196.324 50.8769C196.197 50.7495 196.07 50.5796 195.986 50.4098C195.901 50.2399 195.859 50.0276 195.859 49.7728C195.859 49.518 195.901 49.2633 196.028 49.0934C196.112 48.8811 196.281 48.7537 196.493 48.6263C196.704 48.4989 196.958 48.414 197.253 48.3291C197.549 48.2866 197.929 48.2442 198.31 48.2442H198.732V47.9894C198.732 47.862 198.732 47.7346 198.69 47.6072C198.648 47.4798 198.606 47.3949 198.563 47.3524C198.479 47.2675 198.394 47.225 198.31 47.1826C198.225 47.1401 198.056 47.1401 197.887 47.1401C197.676 47.1401 197.465 47.1826 197.296 47.225C197.127 47.2675 197 47.31 196.831 47.3949C196.704 47.4374 196.577 47.5223 196.493 47.5647C196.408 47.6072 196.324 47.6497 196.281 47.6497C196.239 47.6497 196.197 47.6497 196.197 47.6072C196.155 47.5647 196.155 47.5647 196.112 47.5223C196.112 47.4798 196.07 47.4374 196.07 47.3524C196.07 47.2675 196.07 47.225 196.07 47.1401C196.07 47.0552 196.07 46.9703 196.112 46.8853C196.112 46.8429 196.155 46.7579 196.197 46.7155C196.239 46.673 196.324 46.6306 196.45 46.5456C196.577 46.5032 196.704 46.4182 196.873 46.3758C197.042 46.3333 197.211 46.2909 197.38 46.2484C197.549 46.2059 197.76 46.2059 197.972 46.2059C198.31 46.2059 198.648 46.2484 198.901 46.2909C199.155 46.3333 199.366 46.4607 199.535 46.6306C199.704 46.758 199.831 46.9703 199.873 47.1826C199.958 47.3949 200 47.6921 200 47.9894V51.0042ZM198.732 49.0509H198.225C198.014 49.0509 197.845 49.0509 197.676 49.0934C197.549 49.1359 197.422 49.1783 197.338 49.2208C197.253 49.2633 197.169 49.3482 197.127 49.4331C197.084 49.518 197.042 49.603 197.042 49.7304C197.042 49.9002 197.084 50.0701 197.211 50.1974C197.338 50.3248 197.507 50.3673 197.718 50.3673C197.887 50.3673 198.056 50.3248 198.225 50.2399C198.394 50.155 198.521 50.0276 198.69 49.8153V49.0509H198.732Z"
    fill="#534741"/>
  <path
    d="M86.2879 38.2229C89.2285 38.2229 91.6123 35.8275 91.6123 32.8726C91.6123 29.9177 89.2285 27.5223 86.2879 27.5223C83.3474 27.5223 80.9636 29.9177 80.9636 32.8726C80.9636 35.8275 83.3474 38.2229 86.2879 38.2229Z"
    fill="#EB5646"/>
  <path
    d="M110.585 38.0531C112.336 38.0531 113.754 36.6272 113.754 34.8683C113.754 33.1095 112.336 31.6836 110.585 31.6836C108.835 31.6836 107.416 33.1095 107.416 34.8683C107.416 36.6272 108.835 38.0531 110.585 38.0531Z"
    fill="#EB5646"/>
  <path
    d="M100.613 10.8768C103.824 10.9193 112.741 10.7069 113.121 13.2547C113.755 17.3312 107.12 22.2144 97.0634 24.4225C85.2738 27.0127 83.499 19.5392 82.1046 10.5796C81.7243 8.15917 82.5271 0.430921 84.8935 0.0487543C90.3868 -0.842967 93.049 10.7919 100.613 10.8768Z"
    fill="#EB5646"/>
</svg>
